<svg width="392" height="354" viewBox="0 0 392 354" fill="none" xmlns="http://www.w3.org/2000/svg">
<path d="M150.126 340.212C142.909 338.685 135.731 336.46 128.179 333.41C128.088 333.369 127.864 333.126 127.794 332.908C127.041 330.45 126.789 327.973 127.021 325.337C128.5 308.501 118.035 290.762 102.142 283.157C101.804 282.992 101.452 282.85 101.046 282.691L100.669 282.542C100.311 282.395 99.8748 282.456 99.586 282.678C99.2737 282.909 99.1187 283.285 99.1822 283.662L99.6172 286.244C100.003 288.528 100.381 290.763 100.744 293L100.835 293.586C101.855 299.944 102.911 306.519 104.966 312.836C106.821 318.535 109.682 323.032 113.663 326.478C105.254 321.727 97.4179 316.019 90.3015 309.453C90.1521 309.315 89.9748 308.95 89.9491 308.649L89.7584 304.143C89.7573 303.983 89.7551 303.558 89.8499 303.347C93.3551 295.524 94.2529 286.718 92.5967 276.428C90.9997 266.503 86.5766 257.377 79.4491 249.301C78.6149 248.355 77.8788 247.876 77.261 247.876C77.1104 247.876 76.9743 247.905 76.8673 247.959C76.5394 248.115 76.3175 248.417 76.274 248.766L76.0833 250.338C75.9361 251.505 75.7944 252.65 75.6673 253.798C75.4476 255.819 75.2067 257.837 74.9647 259.857L74.9301 260.148C74.3279 265.19 73.7033 270.404 73.3732 275.625C72.9896 281.715 73.1033 288.827 76.8606 295.407C76.8807 295.44 76.8985 295.475 76.9186 295.508C71.6959 289.251 66.9282 282.518 62.6746 275.383C62.2988 274.748 62.2665 274.192 62.3367 273.384C62.639 269.968 64.2962 267.193 66.0416 264.703C69.413 259.882 71.4539 254.184 72.6595 246.227C74.3446 235.098 72.6427 223.934 67.604 213.042C67.4657 212.742 67.304 212.452 67.1312 212.142L66.7375 211.43C66.549 211.083 66.1464 210.854 65.7215 210.872C65.2977 210.894 64.9241 211.151 64.7702 211.525C63.5479 214.478 62.3657 217.323 61.1914 220.147L60.4408 221.952C57.936 227.979 55.1267 235.016 53.4939 242.276C52.343 247.399 52.2727 252.343 53.282 257.051C49.3653 248.12 46.1456 238.682 43.6798 228.897C43.6519 228.788 43.643 228.506 43.8872 227.855C45.0404 224.831 47.1404 222.09 49.8014 220.136C55.6263 215.855 58.9308 209.906 61.3943 204.652C66.4386 193.906 67.807 182.489 65.5765 169.748C65.5531 169.615 65.5107 169.482 65.4605 169.338L65.4204 169.223C65.3234 168.937 65.1025 168.707 64.8103 168.586C64.5248 168.472 64.1657 168.493 63.9438 168.598C63.7208 168.676 63.3828 168.794 63.1631 169.103C61.9007 170.719 60.6193 172.349 59.3367 173.978L59.1215 174.253C55.8873 178.367 52.5426 182.62 49.3285 186.856C45.6047 191.751 42.9749 196.508 41.2876 201.402C40.4734 203.765 39.9415 206.04 39.6905 208.249C38.6188 200.31 38.011 192.204 37.8783 184.03C37.847 182.079 38.1058 180.529 39.4965 178.831C40.9686 177.021 42.3437 176.01 44.2396 175.344C52.0296 172.617 57.027 166.855 60.51 162.14C66.1364 154.513 69.4364 145.637 70.5985 135.006C70.7223 133.912 70.7925 132.805 70.865 131.634L70.8829 131.368C70.9174 130.799 70.9542 130.206 71.0011 129.578C71.0301 129.161 70.797 128.77 70.4078 128.581C70.0308 128.399 69.5479 128.452 69.22 128.718L68.2955 129.477C67.9475 129.761 67.6498 130.005 67.3408 130.242C65.8564 131.384 64.3665 132.515 62.8732 133.648L62.717 133.766C59.4393 136.253 56.049 138.825 52.8114 141.481C46.5292 146.614 42.4842 151.723 40.0809 157.562C39.6838 158.525 39.3359 159.476 39.037 160.419C40.0251 151.141 41.6299 142.003 43.8337 133.139C44.1013 132.054 44.2508 131.736 44.8006 131.563C45.1463 131.45 45.4686 131.235 45.7039 130.968C47.3021 129.227 49.4066 128.951 51.4452 128.912C58.2482 128.759 63.6438 125.508 68.0234 122.347C78.7621 114.599 86.1562 94.94 86.1562 94.2733C86.1562 93.9261 85.9755 93.6024 85.6688 93.4069C85.3666 93.2156 84.9584 93.1889 84.6506 93.3203C82.4134 94.2295 80.1762 95.1153 77.8598 96.0331C72.7632 98.0577 67.4936 100.15 62.4326 102.437C57.3393 104.746 53.3144 107.834 50.437 111.633C53.1794 104.168 56.359 96.8493 59.9189 89.8159C60.3282 89.0573 62.2509 88.2517 65.0077 88.2517C65.9044 88.2517 66.7732 88.3436 67.5237 88.5166C74.0011 90.0039 80.4238 89.1021 87.5324 85.6992C94.8049 82.2161 100.838 76.5214 105.977 68.2848C106.076 68.1256 106.269 67.6395 106.372 67.3671C106.503 67.0337 106.45 66.6662 106.234 66.3873C106.033 66.1223 105.712 65.9642 105.303 65.9642C105.299 65.9642 105.297 65.9642 105.294 65.9642L102.726 66.1191C101.153 66.2142 99.625 66.3072 98.0971 66.382L96.4655 66.461C91.5941 66.6961 86.5554 66.9375 81.626 68.0626C76.0041 69.3575 71.8765 71.3459 68.7115 74.2948C72.4576 68.3212 76.4691 62.6371 80.6948 57.3131C80.8086 57.1721 81.3539 56.9563 81.8011 56.8847C82.0242 56.8345 82.8361 56.671 83.9156 56.671C85.3476 56.671 86.6011 56.9499 87.664 57.5097C94.4168 60.6733 102 60.9084 110.234 58.1988C116.988 55.9883 122.708 51.8823 127.723 45.6501C127.885 45.4493 128.033 45.2302 128.166 44.9995C128.319 44.7334 128.329 44.4407 128.195 44.1735C127.807 43.3936 126.128 43.0271 125.421 42.9053C123.685 42.6147 121.719 42.2835 119.77 42.0303C118.876 41.9106 117.982 41.7856 117.085 41.6585L116.97 41.6414C113.932 41.2119 110.792 40.7674 107.628 40.6146C101.847 40.3315 96.7131 41.4619 92.5119 43.9641C95.3369 41.0836 98.2231 38.3506 101.154 35.7832C102.081 34.9733 103.129 34.157 104.558 33.1324C104.668 33.0512 104.949 32.9561 105.294 32.9369C115.419 32.5576 123.845 28.2753 131.049 19.8475C134.974 15.2597 137.983 9.47305 140.25 2.15643L140.328 1.90535C140.57 1.13608 140.704 0.712978 140.147 0.217226C139.718 -0.165272 138.962 -0.0520151 136.997 0.69375C135.213 1.35083 133.417 1.98869 131.573 2.64364C127.87 3.95888 124.039 5.31899 120.342 6.85539C114.163 9.42817 109.229 13.3279 105.68 18.4447C102.976 22.338 101.908 26.2495 102.411 30.3822C102.408 30.4282 102.365 30.5382 102.358 30.5511C95.909 35.8857 89.7439 41.8914 83.4138 49.0392C87.635 42.8562 90.3863 35.7372 91.767 27.4847C93.1588 19.1648 93.2469 11.7595 92.038 4.84674C91.961 4.41402 91.8573 3.98131 91.7246 3.43962L91.5272 2.60517C91.438 2.24725 91.1569 1.9577 90.7878 1.84659C90.4186 1.74188 90.0049 1.83483 89.7294 2.08591C89.2878 2.48444 88.8551 2.86053 88.4324 3.22593L88.1346 3.48342C87.0528 4.41723 86.0312 5.29869 85.1067 6.29553C76.1234 16.0044 70.884 26.2592 69.0895 37.6465C68.2721 42.7931 68.6111 47.1748 70.1267 51.0382C70.6286 52.3182 71.4115 53.4614 72.191 54.5961C72.5479 55.1143 72.9048 55.6346 73.2316 56.1688C73.4725 56.5524 73.4925 56.6518 73.4914 56.6336C73.3431 58.1561 73.1301 59.8528 72.8423 61.8892C72.8301 61.9148 72.7899 61.9747 72.6617 62.1371L72.558 62.2749C67.6453 68.8169 63.1129 75.7136 59.0345 82.8518C60.6382 77.5203 61.9152 70.7721 61.8248 62.9309C61.7155 53.5255 59.4549 45.1373 54.9114 37.2832C54.7319 36.9777 54.4062 36.7789 53.9501 36.749C53.6188 36.749 53.2999 36.9061 53.0913 37.1743C52.9553 37.3559 52.817 37.5268 52.6854 37.6892C52.3921 38.0525 52.1177 38.3965 51.8724 38.7641C48.2545 44.1992 46.314 50.192 45.0259 54.8066C42.6716 63.2696 41.5898 70.3362 41.621 77.047C41.6389 82.7514 42.724 87.1362 45.037 90.8469C45.7564 92.0019 46.6619 93.0126 47.572 94.0297C48.0549 94.5693 48.5512 95.1238 49.0006 95.6922C49.3151 96.0875 49.4668 96.4903 49.4757 96.7147C49.5348 98.0674 49.5036 99.4424 49.4735 100.772L49.4523 101.69C49.4489 101.849 49.411 102.03 49.3541 102.169C46.45 108.91 43.8972 115.915 41.7203 123.11C42.0404 120.66 42.221 118.288 42.2668 115.974C42.53 102.839 38.3244 91.1087 29.7637 81.1049L27.9793 79.0226C27.773 78.7779 27.4674 78.639 27.1418 78.639L26.9633 78.654C26.5819 78.7149 26.2607 78.9681 26.128 79.3132C25.9652 79.7288 25.8057 80.1209 25.6507 80.5002C25.3518 81.2331 25.0697 81.9276 24.831 82.6339C22.9942 88.1459 22.0931 94.1676 21.9102 102.155L21.9068 102.311C21.7696 108.122 21.5812 116.083 24.0726 123.701C26.525 131.2 30.85 134.99 31.6886 135.671L31.7779 135.748C34.0608 137.7 35.5474 139.485 35.8552 140.644C35.979 141.112 36.105 141.581 36.2522 142.045C36.9035 144.108 36.4965 146.074 36.0571 148.197C35.8385 149.269 35.611 150.376 35.5318 151.511C35.2173 156.056 34.8314 160.678 34.4578 165.148L34.4243 165.561C34.3284 166.701 34.2325 167.841 34.1377 168.981C33.1853 158.754 29.65 149.458 23.5674 141.236C19.8425 136.206 15.4016 131.902 10.3651 128.442C10.1477 128.292 9.91903 128.159 9.61345 127.984C9.46513 127.902 9.29338 127.804 9.08483 127.679C8.77033 127.498 8.36661 127.482 8.04207 127.634C7.70973 127.789 7.4811 128.104 7.44318 128.461C7.37515 129.107 7.29597 129.734 7.21233 130.383C7.04393 131.713 6.88445 132.97 6.87775 134.26C6.80303 147.639 9.75732 160.176 15.6614 171.519C17.3064 174.683 19.48 177.421 22.1243 179.658C24.7462 181.864 27.5756 183.166 30.7686 183.634C30.8388 183.645 31.0061 183.743 31.0318 183.762C31.2046 184.094 31.3842 184.428 31.5637 184.762C32.2017 185.943 32.8608 187.164 33.1886 188.388C33.4619 189.424 33.4619 190.555 33.4619 191.754C33.4619 192.193 33.4619 192.635 33.4764 193.069C33.7831 203.433 34.1857 207.042 35.9165 216.302C34.8604 213.549 33.5344 210.788 31.8225 208.132C24.8901 197.382 16.083 190.086 4.89819 185.828C4.18667 185.554 3.47291 185.356 2.64539 185.125L2.48034 185.078C2.14465 184.984 1.78889 184.884 1.40859 184.773C1.06509 184.665 0.673639 184.738 0.393712 184.961C0.1149 185.182 -0.0311968 185.521 0.00560633 185.873C0.0881346 186.608 0.145012 187.323 0.197429 188.021C0.312299 189.551 0.420478 190.995 0.807469 192.425C4.41641 205.779 10.3897 216.415 19.0674 224.942C22.7778 228.588 26.6879 230.678 31.0206 231.333C32.1136 231.496 33.4496 231.517 35.7113 231.382L36.3626 231.345C36.4619 231.339 36.5489 231.334 36.6281 231.334C36.8065 231.334 36.821 231.334 36.9448 231.509L39.9749 235.495C40.014 235.548 40.0708 235.737 40.1099 235.867L40.1545 236.01C43.2995 246.225 47.2017 256.063 51.8032 265.4C49.7322 262.661 47.4627 260.161 44.9333 257.81C33.3013 246.997 13.4142 246.684 11.1848 246.684L10.9071 246.686L10.732 246.717C10.1856 246.903 9.89004 247.463 10.0584 247.99C10.2135 248.486 10.3584 248.989 10.5246 249.578C10.8425 250.686 11.1726 251.831 11.6354 252.937C13.8391 258.213 17.4113 263.288 22.8793 268.915C26.6366 272.772 30.8723 276.683 36.3805 279.157C42.4129 281.871 47.8597 282.533 53.2765 281.204C54.1977 280.972 55.2571 280.678 56.1683 280.112C56.8174 279.713 56.9947 279.726 57.6326 280.181C58.3888 280.72 59.1928 281.172 59.9735 281.61C60.4051 281.852 60.8401 282.097 61.246 282.343C61.3107 282.395 61.449 282.612 61.5003 282.692C66.3605 290.287 71.7148 297.345 77.4963 303.783C74.3691 301.603 71.1583 300.026 67.7479 298.976C57.3259 295.759 46.4021 296.168 35.5831 300.176C33.9682 300.775 32.1983 301.684 32.0801 301.748C31.8325 301.904 31.6619 302.156 31.6083 302.445C31.5615 302.73 31.6385 303.02 31.8191 303.242C32.157 303.663 32.4838 304.086 32.8072 304.506L32.8786 304.598C33.6091 305.551 34.4366 306.629 35.3645 307.585C39.5433 311.876 44.6969 314.754 49.6441 317.224C56.4471 320.605 63.404 322.427 70.323 322.641C70.6487 322.652 70.9743 322.658 71.2989 322.658C77.6636 322.658 82.632 320.648 86.4617 316.538C86.5086 316.506 86.6748 316.445 86.7662 316.444C88.2294 316.544 89.6201 316.748 90.6595 316.914C90.8235 316.942 91.0253 317.036 91.1513 317.145C97.5495 322.571 104.326 327.334 111.404 331.388C110.331 331.084 109.226 330.819 108.095 330.606C100.531 329.213 92.8108 330.087 84.3338 333.313C78.6149 335.497 73.2963 338.706 68.0736 343.122C67.6431 343.484 67.5828 344.107 67.9375 344.538C69.7855 346.792 72.1899 348.053 74.2989 348.989C79.4424 351.279 85.2484 352.745 92.0547 353.474C92.0748 353.475 94.2618 353.656 97.3287 353.656C99.5425 353.656 101.602 353.561 103.448 353.374C105.212 353.197 106.972 352.907 108.68 352.514C116.522 350.685 121.836 346.924 124.881 341.085C124.936 341.035 125.17 340.905 125.466 340.835C126.882 340.499 128.155 340.261 129.366 340.107C129.652 340.063 130.008 340.136 130.456 340.31C135.872 342.309 141.603 343.974 147.479 345.258C147.562 345.278 147.648 345.287 147.733 345.287C148.128 345.287 148.492 345.079 148.684 344.739C149.245 343.739 149.928 342.78 150.714 341.888C150.961 341.607 151.035 341.233 150.913 340.886C150.797 340.551 150.503 340.297 150.126 340.212Z" fill="#1C1D28"/>
<path d="M234.895 84.5955V100.709L163.85 262.33H132.844L203.767 108.033H111.726V84.5955H234.895Z" fill="#131313"/>
<path d="M222.33 233.892V239.185H207.642V233.892H222.33ZM226.959 233.892V262.33H220.103V233.892H226.959ZM207.174 233.892H213.99L213.248 248.345C213.131 250.533 212.909 252.421 212.584 254.01C212.258 255.585 211.822 256.913 211.275 257.994C210.728 259.062 210.071 259.914 209.302 260.552C208.534 261.191 207.642 261.646 206.627 261.92C205.624 262.193 204.498 262.33 203.248 262.33H201.588V257.056L202.33 256.978C202.929 256.913 203.456 256.75 203.912 256.49C204.368 256.217 204.758 255.813 205.084 255.279C205.422 254.745 205.702 254.062 205.924 253.228C206.145 252.395 206.321 251.386 206.451 250.201C206.594 249.003 206.692 247.603 206.744 246.002L207.174 233.892ZM250.806 257.056V262.33H235.65V257.056H250.806ZM238.092 233.892V262.33H231.236V233.892H238.092ZM248.853 245.181V250.279H235.65V245.181H248.853ZM250.865 233.892V239.185H235.65V233.892H250.865ZM267.779 233.892V262.33H260.924V233.892H267.779ZM276.334 233.892V239.185H252.564V233.892H276.334Z" fill="#131313"/>
<path d="M391.547 184.954C391.266 184.732 390.858 184.662 390.54 184.764C390.152 184.879 389.796 184.978 389.46 185.072L389.296 185.118C388.469 185.35 387.754 185.548 387.046 185.821C375.858 190.08 367.049 197.376 360.117 208.125C358.405 210.782 357.079 213.542 356.023 216.296C357.755 207.035 358.156 203.426 358.463 193.064C358.478 192.629 358.478 192.187 358.478 191.747C358.478 190.549 358.478 189.416 358.751 188.383C359.079 187.159 359.738 185.937 360.376 184.756C360.555 184.421 360.735 184.087 360.883 183.793C360.935 183.735 361.101 183.638 361.165 183.628C364.365 183.16 367.194 181.859 369.817 179.651C372.461 177.414 374.634 174.677 376.279 171.512C382.183 160.17 385.138 147.633 385.063 134.254C385.056 132.963 384.898 131.707 384.724 130.34C384.645 129.728 384.564 129.102 384.497 128.454C384.46 128.098 384.231 127.782 383.9 127.628C383.573 127.476 383.178 127.487 382.848 127.678C382.648 127.798 382.478 127.895 382.323 127.981C382.023 128.152 381.794 128.286 381.578 128.435C376.541 131.894 372.099 136.2 368.373 141.23C362.293 149.451 358.756 158.748 357.804 168.975C357.709 167.835 357.613 166.695 357.517 165.555L357.484 165.141C357.11 160.672 356.724 156.05 356.41 151.505C356.331 150.354 356.1 149.235 355.877 148.151C355.446 146.069 355.039 144.102 355.691 142.041C355.839 141.575 355.964 141.106 356.089 140.638C356.397 139.479 357.883 137.693 360.166 135.741L360.252 135.668C361.094 134.984 365.419 131.193 367.872 123.695C370.363 116.077 370.174 108.117 370.037 102.305L370.034 102.15C369.851 94.1602 368.95 88.1396 367.112 82.6254C366.874 81.9202 366.592 81.2247 366.293 80.4939C366.138 80.1135 365.98 79.7203 365.817 79.309C365.683 78.9607 365.362 78.7075 364.986 78.6476L364.802 78.6316C364.477 78.6316 364.172 78.7716 363.966 79.013L362.18 81.0975C353.62 91.1002 349.414 102.832 349.677 115.967C349.723 118.28 349.904 120.653 350.224 123.103C348.048 115.909 345.496 108.907 342.594 102.17C342.534 102.023 342.495 101.84 342.491 101.685L342.47 100.764C342.44 99.435 342.409 98.06 342.468 96.7073C342.477 96.483 342.629 96.0802 342.944 95.6838C343.393 95.1164 343.89 94.5619 344.405 93.985C345.283 93.0063 346.19 91.9955 346.908 90.8416C349.221 87.1299 350.307 82.7451 350.325 77.0407C350.356 70.3256 349.276 63.259 346.92 54.8003C345.633 50.1857 343.691 44.1907 340.073 38.7556C339.827 38.3902 339.553 38.0462 339.261 37.6819C339.129 37.5205 338.991 37.3485 338.85 37.1637C338.645 36.8998 338.362 36.7459 337.905 36.7459C337.54 36.7716 337.214 36.9703 337.033 37.2791C332.491 45.131 330.23 53.5192 330.122 62.9235C330.031 70.7648 331.309 77.5119 332.912 82.8444C328.833 75.7063 324.301 68.8095 319.388 62.2675L319.276 62.119C319.164 61.9769 319.117 61.9075 319.125 61.9566C318.816 59.8401 318.602 58.1466 318.454 56.6722C318.457 56.6497 318.486 56.5258 318.716 56.1582C319.04 55.6283 319.396 55.109 319.774 54.5599C320.532 53.4551 321.315 52.3119 321.817 51.0319C323.332 47.1685 323.672 42.7868 322.854 37.6413C321.06 26.2529 315.819 15.9981 306.837 6.28922C305.913 5.29238 304.891 4.41092 303.81 3.47925L303.512 3.21962C303.089 2.85315 302.655 2.47813 302.217 2.08174C301.938 1.82746 301.539 1.73237 301.152 1.84135C300.786 1.95247 300.504 2.24307 300.417 2.6042L300.22 3.42904C300.087 3.97607 299.983 4.40772 299.906 4.8415C298.697 11.7542 298.785 19.1585 300.177 27.4794C301.558 35.732 304.309 42.8499 308.53 49.0329C302.2 41.8872 296.043 35.8869 289.608 30.5693C289.579 30.533 289.536 30.4229 289.533 30.3952C290.036 26.2443 288.968 22.3339 286.264 18.4405C282.714 13.3238 277.782 9.424 271.603 6.85122C267.906 5.31482 264.075 3.9547 260.325 2.62237C258.528 1.98345 256.731 1.34666 254.881 0.663936C253.022 -0.0444336 252.227 -0.170509 251.795 0.211989C251.24 0.707741 251.374 1.13084 251.616 1.90011L251.694 2.15119C253.961 9.4678 256.97 15.2544 260.895 19.8412C268.099 28.2701 276.525 32.5523 286.64 32.9305C286.995 32.9509 287.276 33.0449 287.391 33.1303C288.815 34.1518 289.863 34.9691 290.79 35.779C293.721 38.3454 296.607 41.0795 299.431 43.9589C295.231 41.4588 290.097 40.3305 284.316 40.6104C281.152 40.7632 278.011 41.2077 274.975 41.6372L274.859 41.6543C273.961 41.7804 273.068 41.9054 272.176 42.0261C270.225 42.2793 268.258 42.6105 266.52 42.9011C265.816 43.0219 264.136 43.3884 263.749 44.1694C263.615 44.4365 263.626 44.7292 263.778 44.9953C263.911 45.2271 264.059 45.4451 264.219 45.6438C269.234 51.8781 274.956 55.9841 281.71 58.1947C289.945 60.9042 297.508 60.6809 304.305 57.4938C305.344 56.9457 306.597 56.6679 308.029 56.6679C309.11 56.6679 309.921 56.8313 310.19 56.8901C310.592 56.9542 311.139 57.17 311.25 57.3089C315.477 62.6329 319.489 68.3191 323.235 74.2927C320.07 71.3438 315.942 69.3555 310.319 68.0606C305.391 66.9355 300.352 66.694 295.481 66.459L293.849 66.3799C292.321 66.3051 290.793 66.2122 289.22 66.1171L286.581 65.9611C286.24 65.9611 285.915 66.1192 285.717 66.382C285.497 66.6652 285.445 67.0327 285.574 67.3629C285.68 67.6385 285.873 68.1247 285.972 68.2871C291.11 76.5204 297.144 82.2151 304.415 85.6982C311.524 89.1001 317.946 89.9997 324.425 88.5157C325.174 88.3426 326.043 88.2507 326.941 88.2507C329.696 88.2507 331.618 89.0563 332.022 89.8021C335.586 96.8462 338.767 104.166 341.51 111.632C338.633 107.832 334.609 104.745 329.515 102.436C324.454 100.148 319.184 98.0557 313.999 95.9968C311.771 95.1143 309.534 94.2286 307.307 93.3225C306.976 93.1836 306.584 93.2125 306.275 93.408C305.972 93.6014 305.791 93.9241 305.791 94.2713C305.791 94.938 313.185 114.598 323.924 122.345C328.305 125.506 333.7 128.757 340.504 128.91C342.541 128.949 344.646 129.225 346.237 130.957C346.48 131.233 346.802 131.447 347.153 131.562C347.697 131.733 347.846 132.051 348.114 133.137C350.317 142 351.922 151.136 352.91 160.414C352.611 159.472 352.265 158.521 351.866 157.559C349.463 151.72 345.418 146.611 339.137 141.479C335.899 138.823 332.509 136.251 329.23 133.763L329.074 133.645C327.581 132.512 326.091 131.382 324.605 130.239C324.299 130.003 324 129.759 323.653 129.475L322.726 128.714C322.402 128.451 321.919 128.397 321.54 128.579C321.15 128.768 320.917 129.159 320.947 129.577C320.993 130.204 321.03 130.797 321.064 131.366L321.082 131.632C321.156 132.804 321.225 133.91 321.349 135.002C322.511 145.634 325.811 154.51 331.437 162.138C334.92 166.853 339.917 172.616 347.708 175.342C349.604 176.008 350.979 177.018 352.452 178.83C353.842 180.527 354.1 182.077 354.069 184.028C353.936 192.2 353.329 200.308 352.257 208.247C352.006 206.038 351.475 203.763 350.66 201.4C348.972 196.506 346.343 191.749 342.619 186.855C339.405 182.618 336.06 178.365 332.826 174.251L332.611 173.976C331.328 172.347 330.047 170.715 328.799 169.119C328.564 168.791 328.227 168.674 328.031 168.608C327.755 168.479 327.425 168.466 327.131 168.586C326.844 168.704 326.623 168.935 326.526 169.22L326.488 169.331C326.434 169.48 326.392 169.613 326.37 169.745C324.139 182.487 325.508 193.904 330.552 204.65C333.015 209.904 336.32 215.853 342.146 220.134C344.806 222.088 346.906 224.829 348.059 227.852C348.303 228.503 348.294 228.785 348.266 228.894C345.801 238.678 342.58 248.116 338.664 257.048C339.672 252.34 339.603 247.396 338.452 242.272C336.818 235.011 334.01 227.975 331.505 221.949L330.755 220.144C329.58 217.32 328.398 214.474 327.177 211.524C327.022 211.147 326.648 210.889 326.15 210.866C325.757 210.866 325.396 211.081 325.209 211.429L324.815 212.138C324.642 212.449 324.48 212.739 324.342 213.038C319.303 223.93 317.602 235.095 319.287 246.224C320.491 254.181 322.532 259.879 325.905 264.7C327.65 267.191 329.308 269.967 329.609 273.381C329.681 274.189 329.647 274.745 329.272 275.379C325.018 282.515 320.249 289.249 315.026 295.506C315.047 295.472 315.066 295.438 315.086 295.403C318.843 288.825 318.957 281.713 318.573 275.621C318.242 270.4 317.617 265.186 317.016 260.145L316.982 259.854C316.74 257.834 316.499 255.816 316.279 253.793C316.152 252.647 316.01 251.501 315.864 250.337L315.671 248.762C315.629 248.414 315.407 248.113 315.088 247.961C314.495 247.664 313.534 248.122 312.497 249.297C305.37 257.374 300.947 266.5 299.349 276.425C297.693 286.715 298.591 295.521 302.097 303.346C302.191 303.554 302.189 303.98 302.188 304.122L301.999 308.624C301.971 308.948 301.793 309.313 301.646 309.449C294.528 316.016 286.693 321.724 278.284 326.476C282.264 323.029 285.126 318.532 286.98 312.833C289.036 306.516 290.091 299.942 291.113 293.568L291.203 293.001C291.565 290.761 291.943 288.526 292.329 286.242L292.765 283.659C292.827 283.283 292.672 282.907 292.368 282.682C292.066 282.451 291.629 282.395 291.281 282.538L290.9 282.689C290.494 282.848 290.141 282.99 289.807 283.154C273.911 290.76 263.446 308.5 264.925 325.334C265.157 327.971 264.905 330.448 264.153 332.901C264.083 333.124 263.858 333.367 263.766 333.408C256.216 336.458 249.037 338.683 241.814 340.211C241.443 340.294 241.148 340.548 241.028 340.891C240.906 341.236 240.98 341.611 241.227 341.893C242.012 342.784 242.696 343.742 243.258 344.746C243.489 345.156 244.039 345.366 244.45 345.264C250.336 343.978 256.067 342.312 261.49 340.31C261.928 340.141 262.263 340.061 262.576 340.11C263.783 340.264 265.058 340.501 266.473 340.837C266.765 340.906 267.007 341.035 267.012 341.023C270.103 346.927 275.416 350.688 283.26 352.519C284.966 352.911 286.726 353.2 288.49 353.378C290.337 353.565 292.397 353.66 294.611 353.66C297.678 353.66 299.865 353.478 299.891 353.476C306.69 352.747 312.496 351.281 317.638 348.994C319.748 348.057 322.153 346.795 324.001 344.542C324.354 344.11 324.295 343.487 323.866 343.125C318.642 338.709 313.324 335.501 307.603 333.317C299.129 330.09 291.409 329.216 283.842 330.61C282.711 330.821 281.607 331.086 280.534 331.39C287.613 327.337 294.39 322.573 300.79 317.145C300.913 317.038 301.115 316.944 301.272 316.917C302.319 316.751 303.71 316.546 305.133 316.447C305.265 316.447 305.432 316.508 305.451 316.515C309.307 320.649 314.276 322.659 320.641 322.659C320.965 322.659 321.291 322.653 321.615 322.642C328.535 322.428 335.492 320.607 342.297 317.225C347.242 314.754 352.396 311.877 356.576 307.586C357.503 306.632 358.33 305.552 359.061 304.6L359.132 304.508C359.456 304.088 359.782 303.665 360.118 303.247C360.301 303.021 360.378 302.731 360.33 302.438C360.279 302.156 360.108 301.905 359.817 301.723C359.743 301.685 357.974 300.776 356.358 300.176C345.537 296.171 334.614 295.76 324.193 298.977C320.781 300.028 317.57 301.605 314.444 303.784C320.226 297.346 325.579 290.288 330.439 282.693C330.492 282.613 330.63 282.396 330.675 282.357C331.099 282.097 331.534 281.851 331.968 281.609C332.746 281.172 333.551 280.72 334.307 280.181C334.945 279.725 335.124 279.714 335.769 280.111C336.681 280.678 337.742 280.973 338.666 281.205C344.075 282.532 349.528 281.871 355.559 279.158C361.068 276.683 365.304 272.772 369.062 268.915C374.529 263.289 378.102 258.212 380.305 252.939C380.768 251.832 381.098 250.687 381.442 249.491C381.583 248.989 381.728 248.486 381.882 247.993C382.051 247.463 381.756 246.902 381.21 246.717L380.757 246.684C378.528 246.684 358.64 246.997 347.008 257.81C344.478 260.162 342.21 262.662 340.139 265.4C344.74 256.064 348.642 246.225 351.787 236.011L351.833 235.862C351.871 235.737 351.928 235.548 351.966 235.496L355.008 231.494C355.122 231.334 355.135 231.334 355.314 231.334C355.393 231.334 355.48 231.339 355.579 231.345L356.229 231.382C358.493 231.517 359.826 231.497 360.922 231.333C365.254 230.678 369.164 228.588 372.874 224.943C381.552 216.416 387.525 205.779 391.134 192.426C391.521 190.995 391.629 189.551 391.745 188.019C391.797 187.324 391.854 186.608 391.936 185.869C391.971 185.514 391.826 185.176 391.547 184.954Z" fill="#1C1D28"/>
</svg>
