<svg width="149" height="120" viewBox="0 0 149 120" fill="none" xmlns="http://www.w3.org/2000/svg">
<path d="M97.1699 22.9062V29.3516L68.752 94H56.3496L84.7188 32.2812H47.9023V22.9062H97.1699Z" fill="#131313"/>
<path d="M48.2314 106.78C45.9369 106.301 43.6548 105.603 41.2535 104.645C41.2248 104.632 41.1535 104.556 41.1312 104.488C40.8918 103.716 40.8117 102.939 40.8855 102.111C41.3556 96.8273 38.0286 91.2596 32.9754 88.8726C32.8679 88.8209 32.7559 88.7763 32.6268 88.7264L32.507 88.6794C32.3931 88.6335 32.2545 88.6526 32.1627 88.7224C32.0634 88.7948 32.0141 88.9128 32.0343 89.0312L32.1726 89.8414C32.2953 90.5584 32.4155 91.2599 32.5307 91.9621L32.5598 92.1459C32.8842 94.1415 33.2197 96.2053 33.8732 98.1878C34.4629 99.9765 35.3727 101.388 36.6382 102.469C33.9647 100.979 31.4734 99.1868 29.2107 97.1261C29.1632 97.0828 29.1069 96.9682 29.0987 96.8736L29.0381 95.4594C29.0377 95.4091 29.037 95.2757 29.0671 95.2096C30.1816 92.7542 30.467 89.9903 29.9405 86.7606C29.4327 83.6456 28.0264 80.7811 25.7603 78.2462C25.4951 77.9494 25.261 77.7992 25.0646 77.7992C25.0167 77.7992 24.9735 77.8082 24.9394 77.825C24.8352 77.8739 24.7646 77.9688 24.7508 78.0785L24.6901 78.5718C24.6433 78.938 24.5983 79.2975 24.5579 79.6576C24.488 80.2921 24.4114 80.9256 24.3345 81.5594L24.3235 81.6509C24.132 83.2334 23.9335 84.8699 23.8285 86.5084C23.7065 88.4199 23.7427 90.6523 24.9373 92.7173C24.9437 92.7277 24.9493 92.7388 24.9557 92.7492C23.2952 90.7854 21.7794 88.6721 20.427 86.4326C20.3075 86.2334 20.2972 86.0587 20.3195 85.8052C20.4156 84.7331 20.9425 83.8619 21.4975 83.0805C22.5694 81.5674 23.2183 79.779 23.6016 77.2814C24.1373 73.7884 23.5963 70.2844 21.9942 66.8659C21.9503 66.7717 21.8989 66.6808 21.8439 66.5832L21.7187 66.3599C21.6588 66.2509 21.5308 66.1791 21.3957 66.1848C21.261 66.1915 21.1422 66.2723 21.0932 66.3897C20.7046 67.3166 20.3288 68.2096 19.9554 69.096L19.7167 69.6624C18.9203 71.554 18.0271 73.7626 17.508 76.0413C17.1421 77.6493 17.1198 79.2012 17.4407 80.6788C16.1954 77.8756 15.1717 74.9135 14.3877 71.8421C14.3788 71.8079 14.376 71.7194 14.4536 71.5151C14.8203 70.5661 15.488 69.7056 16.334 69.0923C18.186 67.7489 19.2366 65.8817 20.0199 64.2324C21.6237 60.8595 22.0588 57.2764 21.3496 53.2774C21.3422 53.2355 21.3287 53.1939 21.3127 53.1486L21.3 53.1124C21.2691 53.0229 21.1989 52.9504 21.106 52.9125C21.0152 52.8767 20.9011 52.8834 20.8305 52.9162C20.7596 52.9407 20.6521 52.9779 20.5823 53.0748C20.1809 53.5819 19.7735 54.0936 19.3657 54.605L19.2973 54.6912C18.269 55.9826 17.2056 57.3173 16.1837 58.6469C14.9997 60.1832 14.1636 61.6764 13.6271 63.2123C13.3682 63.9541 13.1991 64.6681 13.1193 65.3615C12.7786 62.8696 12.5853 60.3253 12.5431 57.7599C12.5332 57.1476 12.6155 56.661 13.0576 56.1282C13.5257 55.5601 13.9629 55.2429 14.5657 55.0336C17.0425 54.1778 18.6314 52.3693 19.7387 50.8894C21.5276 48.4954 22.5768 45.7097 22.9463 42.373C22.9857 42.0296 23.008 41.6822 23.031 41.3146L23.0367 41.2311C23.0477 41.0524 23.0594 40.8663 23.0743 40.6691C23.0835 40.5383 23.0094 40.4156 22.8857 40.3562C22.7658 40.2992 22.6123 40.316 22.508 40.3995L22.2141 40.6376C22.1034 40.7268 22.0088 40.8032 21.9106 40.8777C21.4386 41.2362 20.9649 41.591 20.4901 41.9468L20.4404 41.9836C19.3983 42.7643 18.3204 43.5715 17.291 44.4052C15.2936 46.0162 14.0076 47.6198 13.2434 49.4524C13.1172 49.7546 13.0066 50.0534 12.9115 50.3492C13.2257 47.437 13.736 44.5692 14.4366 41.7868C14.5217 41.4464 14.5692 41.3465 14.744 41.2922C14.854 41.2569 14.9564 41.1892 15.0313 41.1054C15.5394 40.5591 16.2085 40.4726 16.8567 40.4602C19.0196 40.4122 20.7351 39.3918 22.1276 38.3998C25.5419 35.9679 27.8928 29.7975 27.8928 29.5883C27.8928 29.4793 27.8353 29.3777 27.7378 29.3163C27.6417 29.2563 27.5119 29.2479 27.4141 29.2892C26.7028 29.5745 25.9915 29.8525 25.255 30.1406C23.6345 30.7761 21.9591 31.4327 20.35 32.1507C18.7306 32.8753 17.4509 33.8445 16.5361 35.037C17.408 32.6939 18.419 30.3968 19.5508 28.1892C19.6809 27.9511 20.2922 27.6983 21.1688 27.6983C21.4538 27.6983 21.7301 27.7271 21.9687 27.7814C24.0281 28.2482 26.0702 27.9652 28.3303 26.8971C30.6426 25.8039 32.5609 24.0165 34.1948 21.4313C34.226 21.3814 34.2873 21.2288 34.3203 21.1433C34.3618 21.0387 34.3451 20.9233 34.2763 20.8358C34.2125 20.7526 34.1104 20.703 33.9803 20.703C33.9792 20.703 33.9785 20.703 33.9774 20.703L33.1612 20.7516C32.6609 20.7815 32.1751 20.8106 31.6893 20.8341L31.1705 20.8589C29.6217 20.9327 28.0197 21.0085 26.4524 21.3616C24.665 21.768 23.3526 22.3921 22.3463 23.3177C23.5374 21.4428 24.8128 19.6587 26.1564 17.9877C26.1925 17.9434 26.3659 17.8757 26.5081 17.8532C26.579 17.8375 26.8372 17.7861 27.1804 17.7861C27.6357 17.7861 28.0342 17.8737 28.3722 18.0494C30.5192 19.0424 32.9303 19.1161 35.5482 18.2657C37.6956 17.5719 39.5143 16.2831 41.1085 14.3271C41.1603 14.264 41.2071 14.1953 41.2496 14.1228C41.2982 14.0393 41.3014 13.9475 41.2588 13.8636C41.1354 13.6188 40.6014 13.5038 40.3766 13.4656C39.8249 13.3743 39.1998 13.2704 38.5799 13.1909C38.2959 13.1534 38.0115 13.1141 37.7265 13.0742L37.6899 13.0688C36.724 12.934 35.7255 12.7945 34.7196 12.7466C32.8814 12.6577 31.2493 13.0125 29.9135 13.7979C30.8117 12.8938 31.7294 12.036 32.6612 11.2302C32.9559 10.976 33.2892 10.7198 33.7434 10.3982C33.7785 10.3727 33.8679 10.3428 33.9774 10.3368C37.1967 10.2177 39.8756 8.87368 42.1662 6.22848C43.414 4.78851 44.3707 2.97228 45.0915 0.675836L45.1164 0.59703C45.1933 0.355581 45.2359 0.222784 45.0589 0.067184C44.9224 -0.0528695 44.682 -0.017322 44.0572 0.216749C43.4899 0.422986 42.919 0.623187 42.3329 0.828754C41.1553 1.24156 39.9373 1.66846 38.7618 2.15068C36.7974 2.95819 35.2288 4.1822 34.1001 5.78817C33.2406 7.01017 32.9009 8.23787 33.0608 9.53498C33.0598 9.5494 33.0463 9.58394 33.0442 9.58797C30.9936 11.2623 29.0335 13.1473 27.0208 15.3908C28.3629 13.4501 29.2377 11.2157 29.6767 8.62553C30.1192 6.01419 30.1472 3.68992 29.7628 1.52023C29.7384 1.38442 29.7054 1.24861 29.6632 1.07859L29.6004 0.81668C29.5721 0.70434 29.4827 0.613462 29.3653 0.578586C29.248 0.545722 29.1164 0.574897 29.0288 0.653703C28.8884 0.778786 28.7509 0.896828 28.6165 1.01152L28.5218 1.09233C28.1778 1.38543 27.853 1.66209 27.5591 1.97496C24.7029 5.02224 23.0371 8.24089 22.4665 11.815C22.2066 13.4304 22.3144 14.8056 22.7963 16.0182C22.9559 16.42 23.2048 16.7788 23.4526 17.1349C23.5661 17.2975 23.6796 17.4609 23.7835 17.6285C23.8601 17.7489 23.8664 17.7801 23.8661 17.7744C23.8189 18.2523 23.7512 18.7848 23.6597 19.424C23.6558 19.432 23.6431 19.4508 23.6023 19.5018L23.5693 19.545C22.0074 21.5984 20.5663 23.763 19.2696 26.0034C19.7795 24.3301 20.1855 22.212 20.1568 19.7509C20.122 16.7989 19.4033 14.1661 17.9587 11.701C17.9016 11.6051 17.7981 11.5427 17.6531 11.5333C17.5477 11.5333 17.4463 11.5826 17.38 11.6668C17.3368 11.7238 17.2928 11.7774 17.251 11.8284C17.1577 11.9424 17.0705 12.0504 16.9925 12.1658C15.8422 13.8717 15.2252 15.7526 14.8157 17.201C14.0671 19.8572 13.7232 22.0752 13.7331 24.1815C13.7388 25.9719 14.0838 27.3482 14.8192 28.5128C15.0479 28.8753 15.3358 29.1926 15.6252 29.5118C15.7787 29.6812 15.9365 29.8552 16.0794 30.0336C16.1794 30.1577 16.2276 30.2841 16.2305 30.3545C16.2493 30.7791 16.2393 31.2107 16.2297 31.6278L16.223 31.9162C16.2219 31.9659 16.2099 32.0229 16.1918 32.0665C15.2685 34.1822 14.4568 36.381 13.7647 38.6392C13.8664 37.8703 13.9239 37.1258 13.9384 36.3995C14.0221 32.2767 12.685 28.595 9.96317 25.4552L9.39583 24.8016C9.33024 24.7248 9.23308 24.6812 9.12954 24.6812L9.07281 24.6859C8.95154 24.705 8.84942 24.7845 8.80722 24.8928C8.75545 25.0232 8.70475 25.1463 8.65546 25.2653C8.56043 25.4954 8.47072 25.7134 8.39484 25.935C7.81084 27.6651 7.52434 29.5551 7.46618 32.0621L7.46512 32.1111C7.42151 33.935 7.36158 36.4337 8.15372 38.8247C8.93346 41.1785 10.3085 42.3679 10.5752 42.5816L10.6036 42.6057C11.3294 43.2184 11.802 43.7787 11.8999 44.1426C11.9393 44.2895 11.9793 44.4367 12.0261 44.5822C12.2332 45.2298 12.1038 45.8468 11.9641 46.5131C11.8946 46.8495 11.8223 47.1969 11.7971 47.5534C11.6971 48.9799 11.5744 50.4306 11.4556 51.8334L11.445 51.9632C11.4145 52.321 11.384 52.6788 11.3539 53.0366C11.051 49.8267 9.927 46.9089 7.9931 44.3284C6.80878 42.7496 5.39683 41.3988 3.79552 40.3126C3.72638 40.2657 3.65369 40.2238 3.55653 40.1691C3.50937 40.1433 3.45477 40.1124 3.38846 40.0732C3.28847 40.0165 3.16011 40.0115 3.05692 40.0591C2.95125 40.1077 2.87856 40.2066 2.86651 40.3187C2.84488 40.5215 2.8197 40.718 2.79311 40.9219C2.73957 41.3394 2.68886 41.7338 2.68673 42.1389C2.66298 46.3381 3.60227 50.273 5.47944 53.8331C6.00246 54.8264 6.69354 55.6855 7.53426 56.3877C8.36789 57.0802 9.26747 57.4887 10.2827 57.6355C10.305 57.6392 10.3582 57.6697 10.3663 57.6758C10.4213 57.7801 10.4784 57.8847 10.5355 57.9897C10.7383 58.3602 10.9479 58.7435 11.0521 59.1278C11.139 59.4528 11.139 59.8079 11.139 60.1842C11.139 60.322 11.139 60.4608 11.1436 60.597C11.2411 63.8498 11.3691 64.9826 11.9194 67.889C11.5836 67.0249 11.162 66.1583 10.6177 65.3247C8.41363 61.9508 5.61348 59.6607 2.05735 58.3243C1.83112 58.2381 1.60419 58.1761 1.34108 58.1037L1.28861 58.0889C1.18188 58.0594 1.06876 58.0279 0.94785 57.993C0.838638 57.9591 0.714179 57.9823 0.625178 58.052C0.536532 58.1214 0.490081 58.2278 0.501782 58.3384C0.528022 58.5691 0.546106 58.7935 0.562771 59.0125C0.599293 59.4927 0.633688 59.9461 0.756729 60.3948C1.90417 64.5862 3.80332 67.9246 6.56235 70.601C7.74205 71.7452 8.98523 72.4011 10.3628 72.6067C10.7103 72.658 11.1351 72.6644 11.8542 72.6221L12.0613 72.6104C12.0928 72.6087 12.1205 72.607 12.1456 72.607C12.2024 72.607 12.207 72.607 12.2463 72.662L13.2098 73.9132C13.2222 73.9296 13.2402 73.989 13.2527 74.0299L13.2668 74.0748C14.2668 77.2807 15.5075 80.3686 16.9705 83.2992C16.312 82.4397 15.5904 81.655 14.7862 80.9169C11.0879 77.5232 4.76496 77.4249 4.05614 77.4249L3.96785 77.4256L3.91218 77.4353C3.73843 77.4937 3.64447 77.6694 3.69801 77.8347C3.7473 77.9906 3.79339 78.1483 3.84623 78.3334C3.94728 78.6811 4.05224 79.0403 4.19939 79.3877C4.90005 81.0436 6.03579 82.6365 7.77432 84.4024C8.96891 85.613 10.3156 86.8407 12.0669 87.6171C13.9849 88.4688 15.7167 88.6768 17.4389 88.2596C17.7318 88.1868 18.0686 88.0946 18.3583 87.9169C18.5647 87.7918 18.6211 87.7958 18.8239 87.9387C19.0643 88.1077 19.32 88.2495 19.5682 88.387C19.7054 88.4631 19.8437 88.5399 19.9727 88.6171C19.9933 88.6335 20.0373 88.7016 20.0536 88.7267C21.5989 91.1104 23.3012 93.3256 25.1394 95.3464C24.1451 94.6623 23.1243 94.1674 22.04 93.8377C18.7264 92.828 15.2532 92.9564 11.8134 94.2143C11.3 94.4024 10.7372 94.6875 10.6996 94.7076C10.6209 94.7566 10.5667 94.8357 10.5497 94.9266C10.5348 95.0158 10.5592 95.107 10.6167 95.1768C10.7241 95.3089 10.828 95.4417 10.9308 95.5735L10.9535 95.6023C11.1858 95.9014 11.4489 96.2398 11.7439 96.5396C13.0725 97.8867 14.7111 98.7898 16.284 99.5651C18.447 100.626 20.6589 101.198 22.8587 101.265C22.9623 101.269 23.0658 101.271 23.169 101.271C25.1926 101.271 26.7723 100.64 27.9899 99.3498C28.0048 99.3397 28.0576 99.3206 28.0867 99.3203C28.5519 99.3518 28.9941 99.4158 29.3246 99.4678C29.3767 99.4765 29.4409 99.5061 29.4809 99.5403C31.5152 101.243 33.6697 102.738 35.9202 104.011C35.5791 103.915 35.2277 103.832 34.8681 103.765C32.463 103.328 30.0086 103.602 27.3134 104.615C25.4951 105.3 23.804 106.308 22.1435 107.693C22.0066 107.807 21.9875 108.003 22.1003 108.138C22.6878 108.845 23.4523 109.241 24.1228 109.535C25.7582 110.254 27.6041 110.714 29.7682 110.943C29.7745 110.943 30.4699 111 31.445 111C32.1488 111 32.8038 110.97 33.3906 110.911C33.9515 110.856 34.5111 110.765 35.054 110.642C37.5474 110.067 39.237 108.887 40.205 107.054C40.2224 107.039 40.2968 106.998 40.3912 106.976C40.8411 106.87 41.2461 106.796 41.6311 106.747C41.7219 106.733 41.835 106.757 41.9776 106.811C43.6994 107.438 45.5217 107.961 47.39 108.364C47.4162 108.37 47.4435 108.373 47.4708 108.373C47.5963 108.373 47.7119 108.308 47.7729 108.201C47.9513 107.887 48.1686 107.586 48.4186 107.306C48.497 107.218 48.5204 107.101 48.4817 106.992C48.4448 106.887 48.3512 106.807 48.2314 106.78Z" fill="#1C1D28"/>
<path d="M148.377 58.05C148.29 57.9802 148.163 57.9581 148.064 57.9903C147.943 58.0262 147.832 58.0574 147.728 58.0869L147.677 58.1013C147.419 58.1741 147.196 58.2364 146.976 58.3219C143.493 59.6586 140.751 61.9486 138.593 65.3225C138.06 66.1561 137.647 67.0226 137.318 67.8868C137.857 64.9801 137.982 63.8477 138.078 60.5952C138.082 60.4587 138.082 60.3199 138.082 60.1821C138.082 59.8058 138.082 59.4504 138.167 59.1261C138.269 58.7418 138.475 58.3585 138.673 57.9876C138.729 57.8826 138.785 57.7777 138.831 57.6855C138.847 57.6674 138.899 57.6368 138.919 57.6338C139.915 57.4869 140.796 57.0785 141.612 56.3854C142.435 55.6835 143.112 54.8244 143.624 53.8311C145.462 50.2711 146.382 46.3363 146.359 42.1371C146.357 41.7321 146.307 41.3377 146.253 40.9088C146.228 40.7167 146.203 40.5201 146.183 40.3166C146.171 40.2049 146.1 40.1057 145.997 40.0574C145.895 40.0098 145.772 40.0131 145.669 40.0731C145.607 40.1107 145.554 40.1412 145.506 40.1684C145.412 40.222 145.341 40.2639 145.274 40.3109C143.706 41.3964 142.323 42.7478 141.163 44.3266C139.27 46.907 138.169 49.8248 137.872 53.0347C137.843 52.6768 137.813 52.319 137.783 51.9612L137.773 51.8315C137.657 50.4287 137.536 48.9781 137.438 47.5515C137.414 47.1904 137.342 46.8389 137.273 46.4989C137.139 45.8453 137.012 45.228 137.215 44.5811C137.261 44.4349 137.3 44.2877 137.338 44.1408C137.434 43.777 137.897 43.2166 138.608 42.6039L138.635 42.5808C138.897 42.3662 140.243 41.1764 141.007 38.823C141.782 36.432 141.724 33.9338 141.681 32.1095L141.68 32.0609C141.623 29.5532 141.342 27.6636 140.77 25.9329C140.696 25.7116 140.608 25.4933 140.515 25.2639C140.467 25.1445 140.418 25.0211 140.367 24.892C140.325 24.7827 140.225 24.7032 140.108 24.6844L140.051 24.6794C139.95 24.6794 139.855 24.7233 139.791 24.7991L139.235 25.4534C136.57 28.5928 135.261 32.2748 135.342 36.3975C135.357 37.1235 135.413 37.8683 135.513 38.6372C134.835 36.3794 134.041 34.1816 133.137 32.0673C133.119 32.021 133.107 31.9636 133.105 31.915L133.099 31.6259C133.09 31.2088 133.08 30.7772 133.098 30.3527C133.101 30.2822 133.148 30.1558 133.246 30.0314C133.386 29.8533 133.541 29.6793 133.701 29.4982C133.975 29.1911 134.257 28.8738 134.48 28.5117C135.2 27.3467 135.539 25.9705 135.544 24.1801C135.554 22.0725 135.217 19.8545 134.484 17.1997C134.084 15.7513 133.479 13.8698 132.352 12.1639C132.276 12.0492 132.191 11.9412 132.1 11.8269C132.059 11.7762 132.016 11.7222 131.972 11.6642C131.908 11.5814 131.82 11.5331 131.677 11.5331C131.564 11.5412 131.463 11.6035 131.406 11.7004C129.992 14.1649 129.288 16.7976 129.255 19.7493C129.226 22.2103 129.624 24.328 130.123 26.0016C128.853 23.7612 127.442 21.5966 125.913 19.5434L125.878 19.4967C125.843 19.4521 125.829 19.4303 125.831 19.4458C125.735 18.7815 125.668 18.25 125.622 17.7872C125.623 17.7801 125.632 17.7412 125.704 17.6259C125.805 17.4596 125.915 17.2966 126.033 17.1242C126.269 16.7775 126.513 16.4187 126.669 16.0169C127.141 14.8043 127.247 13.4291 126.992 11.8141C126.433 8.23975 124.802 5.02117 122.006 1.97394C121.718 1.66107 121.4 1.38442 121.063 1.092L120.97 1.01051C120.839 0.895492 120.704 0.777789 120.567 0.653378C120.48 0.573568 120.356 0.543723 120.236 0.577928C120.122 0.612803 120.034 0.704014 120.007 0.817358L119.946 1.07624C119.904 1.24793 119.872 1.38341 119.848 1.51956C119.471 3.6892 119.499 6.0131 119.932 8.62472C120.362 11.2149 121.219 13.4489 122.533 15.3895C120.562 13.1468 118.645 11.2635 116.642 9.59452C116.633 9.58312 116.62 9.54858 116.619 9.53986C116.775 8.23707 116.442 7.00973 115.601 5.78775C114.496 4.18181 112.96 2.95783 111.037 2.15033C109.886 1.66811 108.693 1.24123 107.525 0.82306C106.966 0.622527 106.407 0.422665 105.831 0.208384C105.252 -0.013946 105.004 -0.0535161 104.87 0.0665352C104.697 0.222132 104.739 0.354927 104.814 0.596371L104.838 0.675175C105.544 2.97158 106.481 4.78777 107.703 6.22738C109.946 8.87287 112.569 10.2169 115.718 10.3356C115.828 10.342 115.916 10.3715 115.952 10.3983C116.395 10.7189 116.721 10.9754 117.01 11.2296C117.922 12.0351 118.821 12.8932 119.7 13.797C118.392 13.0123 116.794 12.6582 114.994 12.746C114.009 12.794 113.032 12.9335 112.086 13.0683L112.05 13.0737C111.771 13.1132 111.492 13.1525 111.215 13.1904C110.607 13.2698 109.995 13.3738 109.454 13.465C109.235 13.5029 108.712 13.6179 108.591 13.863C108.55 13.9469 108.553 14.0388 108.6 14.1223C108.642 14.195 108.688 14.2634 108.738 14.3258C110.299 16.2825 112.08 17.5712 114.183 18.265C116.747 19.1155 119.101 19.0454 121.217 18.0451C121.541 17.873 121.931 17.7858 122.377 17.7858C122.713 17.7858 122.966 17.8371 123.049 17.8556C123.175 17.8757 123.345 17.9435 123.379 17.987C124.695 19.658 125.944 21.4427 127.11 23.3176C126.125 22.3921 124.84 21.768 123.09 21.3616C121.555 21.0084 119.987 20.9327 118.47 20.8589L117.962 20.8341C117.486 20.8106 117.011 20.7814 116.521 20.7516L115.699 20.7026C115.593 20.7026 115.492 20.7523 115.43 20.8347C115.362 20.9236 115.346 21.039 115.386 21.1426C115.419 21.2291 115.479 21.3817 115.51 21.4327C117.109 24.0168 118.988 25.8041 121.251 26.8973C123.465 27.9651 125.464 28.2474 127.481 27.7816C127.714 27.7273 127.985 27.6985 128.264 27.6985C129.122 27.6985 129.72 27.9513 129.846 28.1854C130.956 30.3963 131.946 32.6937 132.8 35.037C131.904 33.8442 130.651 32.8754 129.066 32.1508C127.49 31.4325 125.849 30.7759 124.235 30.1297C123.542 29.8527 122.845 29.5747 122.152 29.2903C122.049 29.2467 121.927 29.2558 121.831 29.3171C121.736 29.3778 121.68 29.4791 121.68 29.5881C121.68 29.7973 123.982 35.9679 127.325 38.3995C128.689 39.3914 130.369 40.4118 132.487 40.4598C133.121 40.4722 133.776 40.5587 134.271 41.1023C134.347 41.1888 134.447 41.2562 134.557 41.2921C134.726 41.3457 134.772 41.4457 134.856 41.7864C135.542 44.5684 136.041 47.4358 136.349 50.3476C136.256 50.0521 136.148 49.7537 136.024 49.4516C135.276 47.6189 134.017 46.0153 132.061 44.4047C131.053 43.5711 129.998 42.7639 128.977 41.9829L128.928 41.946C128.463 41.5902 128 41.2358 127.537 40.8769C127.442 40.8028 127.349 40.7264 127.241 40.6372L126.952 40.3984C126.851 40.3159 126.701 40.2988 126.583 40.3558C126.462 40.4152 126.389 40.5379 126.398 40.669C126.413 40.8659 126.424 41.052 126.435 41.2307L126.44 41.3142C126.463 41.6821 126.485 42.0292 126.523 42.3719C126.885 45.7088 127.912 48.4948 129.664 50.8888C130.748 52.3687 132.304 54.1775 134.729 55.0329C135.32 55.2422 135.748 55.5591 136.206 56.1278C136.639 56.6603 136.719 57.1469 136.71 57.7592C136.668 60.3242 136.479 62.8688 136.146 65.3607C136.067 64.6672 135.902 63.9533 135.648 63.2115C135.123 61.6757 134.304 60.1824 133.145 58.6465C132.144 57.3166 131.103 55.9819 130.096 54.6906L130.029 54.6044C129.63 54.093 129.231 53.5809 128.843 53.0799C128.77 52.977 128.664 52.9401 128.604 52.9196C128.518 52.8791 128.415 52.875 128.324 52.9126C128.234 52.9495 128.165 53.0222 128.135 53.1114L128.123 53.1463C128.107 53.1933 128.093 53.2349 128.086 53.2764C127.392 57.2757 127.818 60.8588 129.388 64.2316C130.155 65.8808 131.184 67.748 132.998 69.0913C133.826 69.7047 134.48 70.5652 134.839 71.5138C134.915 71.7181 134.912 71.8066 134.903 71.8408C134.136 74.9118 133.133 77.8739 131.914 80.6773C132.228 79.1998 132.206 77.6479 131.848 76.0399C131.339 73.7609 130.465 71.5524 129.685 69.6611L129.452 69.0947C129.086 68.2084 128.718 67.3151 128.338 66.3892C128.29 66.2708 128.173 66.19 128.018 66.1826C127.896 66.1826 127.783 66.25 127.725 66.3593L127.602 66.582C127.549 66.6796 127.498 66.7705 127.455 66.8644C125.887 70.2828 125.357 73.7871 125.881 77.28C126.256 79.7776 126.892 81.566 127.942 83.079C128.485 83.861 129.001 84.7322 129.095 85.8036C129.117 86.0572 129.107 86.2319 128.99 86.4307C127.666 88.6704 126.181 90.7841 124.555 92.7478C124.561 92.7371 124.567 92.7264 124.573 92.7156C125.743 90.651 125.779 88.4186 125.659 86.5068C125.556 84.868 125.362 83.2316 125.174 81.6495L125.164 81.5579C125.088 80.9241 125.013 80.2907 124.945 79.6559C124.905 79.296 124.861 78.9362 124.816 78.5711L124.756 78.0768C124.743 77.9674 124.673 77.8729 124.574 77.8253C124.389 77.732 124.091 77.8759 123.768 78.2448C121.549 80.7796 120.172 83.6441 119.675 86.759C119.159 89.9887 119.438 92.7525 120.53 95.2085C120.559 95.2739 120.558 95.4074 120.558 95.452L120.499 96.8651C120.491 96.9667 120.435 97.0814 120.389 97.124C118.174 99.185 115.734 100.977 113.116 102.468C114.355 101.386 115.246 99.9747 115.824 98.186C116.464 96.2035 116.792 94.1402 117.11 92.1395L117.138 91.9615C117.251 91.2586 117.369 90.5571 117.489 89.8401L117.625 89.0296C117.644 88.9116 117.596 88.7935 117.501 88.7228C117.407 88.6503 117.271 88.6329 117.163 88.6778L117.044 88.7251C116.918 88.7751 116.808 88.8197 116.704 88.871C111.755 91.2583 108.497 96.8262 108.958 102.11C109.03 102.937 108.951 103.715 108.717 104.485C108.695 104.555 108.625 104.631 108.597 104.644C106.246 105.601 104.011 106.3 101.763 106.779C101.647 106.805 101.555 106.885 101.518 106.992C101.48 107.101 101.503 107.218 101.58 107.307C101.824 107.587 102.037 107.887 102.212 108.202C102.284 108.331 102.455 108.397 102.583 108.365C104.416 107.961 106.2 107.438 107.888 106.81C108.025 106.757 108.129 106.732 108.226 106.747C108.602 106.796 108.999 106.87 109.44 106.976C109.53 106.997 109.606 107.038 109.607 107.034C110.57 108.887 112.224 110.067 114.666 110.642C115.197 110.765 115.745 110.856 116.294 110.911C116.869 110.97 117.51 111 118.199 111C119.154 111 119.835 110.943 119.843 110.942C121.96 110.714 123.767 110.254 125.368 109.536C126.025 109.241 126.774 108.845 127.349 108.138C127.459 108.003 127.441 107.807 127.307 107.694C125.681 106.308 124.025 105.301 122.244 104.615C119.606 103.602 117.202 103.328 114.847 103.766C114.495 103.832 114.151 103.915 113.817 104.011C116.021 102.738 118.131 101.243 120.123 99.5395C120.161 99.5059 120.224 99.4764 120.273 99.468C120.599 99.4157 121.032 99.3513 121.475 99.3205C121.516 99.3205 121.568 99.3396 121.574 99.3416C122.775 100.639 124.321 101.27 126.303 101.27C126.404 101.27 126.505 101.268 126.606 101.265C128.761 101.198 130.926 100.626 133.045 99.5646C134.584 98.789 136.189 97.8859 137.49 96.5392C137.779 96.2397 138.036 95.901 138.264 95.6022L138.286 95.5731C138.387 95.4413 138.488 95.3085 138.593 95.1774C138.65 95.1066 138.674 95.0154 138.659 94.9235C138.643 94.835 138.59 94.7562 138.499 94.6992C138.476 94.6871 137.925 94.4017 137.422 94.2136C134.054 92.9564 130.653 92.8277 127.409 93.8374C126.347 94.167 125.347 94.6619 124.374 95.346C126.174 93.3253 127.84 91.11 129.353 88.7265C129.37 88.7013 129.413 88.6332 129.427 88.6208C129.559 88.5393 129.694 88.4622 129.829 88.3861C130.071 88.2489 130.322 88.1071 130.557 87.9381C130.756 87.7949 130.812 87.7912 131.013 87.9159C131.297 88.094 131.627 88.1866 131.915 88.2593C133.598 88.6758 135.296 88.4682 137.174 87.6168C138.889 86.8402 140.207 85.6125 141.377 84.4019C143.079 82.636 144.191 81.0428 144.878 79.3876C145.022 79.0402 145.124 78.681 145.231 78.3055C145.275 78.1478 145.321 77.9902 145.368 77.8353C145.421 77.669 145.329 77.4929 145.159 77.4349L145.018 77.4245C144.324 77.4245 138.133 77.5228 134.512 80.9164C133.724 81.6548 133.018 82.4395 132.373 83.2987C133.805 80.3685 135.02 77.2803 135.999 74.0748L136.014 74.0279C136.025 73.9886 136.043 73.9293 136.055 73.9132L137.002 72.657C137.037 72.6067 137.042 72.6067 137.097 72.6067C137.122 72.6067 137.149 72.6084 137.18 72.6101L137.382 72.6218C138.087 72.664 138.502 72.658 138.843 72.6064C140.192 72.4008 141.409 71.7449 142.564 70.6007C145.266 67.9247 147.125 64.5861 148.249 60.395C148.369 59.946 148.403 59.4926 148.439 59.0117C148.455 58.7938 148.473 58.5691 148.498 58.337C148.509 58.2257 148.464 58.1194 148.377 58.05Z" fill="#1C1D28"/>
<path d="M86.0078 85.4688V87.0566H81.6016V85.4688H86.0078ZM87.3965 85.4688V94H85.3398V85.4688H87.3965ZM81.4609 85.4688H83.5059L83.2832 89.8047C83.248 90.4609 83.1816 91.0273 83.084 91.5039C82.9863 91.9766 82.8555 92.375 82.6914 92.6992C82.5273 93.0195 82.3301 93.2754 82.0996 93.4668C81.8691 93.6582 81.6016 93.7949 81.2969 93.877C80.9961 93.959 80.6582 94 80.2832 94H79.7852V92.418L80.0078 92.3945C80.1875 92.375 80.3457 92.3262 80.4824 92.248C80.6191 92.166 80.7363 92.0449 80.834 91.8848C80.9355 91.7246 81.0195 91.5195 81.0859 91.2695C81.1523 91.0195 81.2051 90.7168 81.2441 90.3613C81.2871 90.002 81.3164 89.582 81.332 89.1016L81.4609 85.4688ZM94.5508 92.418V94H90.0039V92.418H94.5508ZM90.7363 85.4688V94H88.6797V85.4688H90.7363ZM93.9648 88.8555V90.3848H90.0039V88.8555H93.9648ZM94.5684 85.4688V87.0566H90.0039V85.4688H94.5684ZM99.6426 85.4688V94H97.5859V85.4688H99.6426ZM102.209 85.4688V87.0566H95.0781V85.4688H102.209Z" fill="#131313"/>
</svg>
