<svg width="32" height="32" viewBox="0 0 32 32" fill="none" xmlns="http://www.w3.org/2000/svg">
<path opacity="0.4" d="M21.434 2.6665H25.9486C27.8183 2.6665 29.3333 4.19431 29.3333 6.07979V10.6325C29.3333 12.518 27.8183 14.0458 25.9486 14.0458H21.434C19.5643 14.0458 18.0493 12.518 18.0493 10.6325V6.07979C18.0493 4.19431 19.5643 2.6665 21.434 2.6665Z" fill="#716FE7"/>
<path fill-rule="evenodd" clip-rule="evenodd" d="M6.05133 2.6665H10.5659C12.4356 2.6665 13.9506 4.19431 13.9506 6.07979V10.6325C13.9506 12.518 12.4356 14.0458 10.5659 14.0458H6.05133C4.18163 14.0458 2.66663 12.518 2.66663 10.6325V6.07979C2.66663 4.19431 4.18163 2.6665 6.05133 2.6665ZM6.05133 17.9538H10.5659C12.4356 17.9538 13.9506 19.4816 13.9506 21.3671V25.9198C13.9506 27.804 12.4356 29.3331 10.5659 29.3331H6.05133C4.18163 29.3331 2.66663 27.804 2.66663 25.9198V21.3671C2.66663 19.4816 4.18163 17.9538 6.05133 17.9538ZM25.9486 17.9538H21.434C19.5643 17.9538 18.0493 19.4816 18.0493 21.3671V25.9198C18.0493 27.804 19.5643 29.3331 21.434 29.3331H25.9486C27.8183 29.3331 29.3333 27.804 29.3333 25.9198V21.3671C29.3333 19.4816 27.8183 17.9538 25.9486 17.9538Z" fill="#716FE7"/>
</svg>
