<svg width="32" height="32" viewBox="0 0 32 32" fill="none" xmlns="http://www.w3.org/2000/svg">
<path opacity="0.4" d="M29.3333 15.9998C29.3333 23.3638 23.364 29.3332 16 29.3332C8.63596 29.3332 2.66663 23.3638 2.66663 15.9998C2.66663 8.63717 8.63596 2.6665 16 2.6665C23.364 2.6665 29.3333 8.63717 29.3333 15.9998Z" fill="#716FE7"/>
<path d="M21.1464 11.6066L18.9864 18.4332C18.9064 18.7132 18.6797 18.9399 18.3997 19.0212L11.5997 21.1532C11.1464 21.3012 10.7064 20.8599 10.8531 20.4066L12.9864 13.5666C13.0664 13.2866 13.2931 13.0732 13.5731 12.9799L20.3997 10.8466C20.8664 10.6999 21.2931 11.1399 21.1464 11.6066Z" fill="#716FE7"/>
</svg>
