<svg width="32" height="32" viewBox="0 0 32 32" fill="none" xmlns="http://www.w3.org/2000/svg">
<path opacity="0.4" d="M22.219 29.3194H9.77967C7.85098 29.4393 5.95691 28.7707 4.5317 27.468C3.22904 26.0415 2.56039 24.1474 2.68026 22.2201V9.7796C2.56039 7.85226 3.2277 5.95821 4.53037 4.53169C5.95691 3.22903 7.85098 2.56039 9.77967 2.68026H22.219C24.145 2.56039 26.0377 3.2277 27.4629 4.53035C28.7643 5.95821 29.4342 7.85093 29.3197 9.7796V22.2201C29.4382 24.1474 28.7709 26.0415 27.4683 27.468C26.0417 28.7707 24.1476 29.4393 22.219 29.3194Z" fill="#716FE7"/>
<path d="M22.7392 13.8633L14.0022 22.6437C13.5478 23.086 12.9506 23.3332 12.3275 23.3332H9.27667C9.1079 23.3332 8.95211 23.2681 8.83527 23.1511C8.71843 23.034 8.6665 22.8779 8.6665 22.7088L8.7444 19.6259C8.75738 19.0145 9.00404 18.4421 9.43246 18.0128L15.625 11.808C15.7288 11.7039 15.9106 11.7039 16.0144 11.808L18.1864 13.9712C18.3292 14.113 18.5369 14.2054 18.7576 14.2054C19.2379 14.2054 19.6144 13.8151 19.6144 13.3468C19.6144 13.1127 19.5235 12.9046 19.3807 12.7485C19.3418 12.6964 17.2737 10.6372 17.2737 10.6372C17.1439 10.5072 17.1439 10.286 17.2737 10.1559L18.1435 9.27138C18.9484 8.46488 20.2466 8.46488 21.0515 9.27138L22.7392 10.9624C23.5311 11.7559 23.5311 13.0567 22.7392 13.8633Z" fill="#716FE7"/>
</svg>
