<svg width="32" height="32" viewBox="0 0 32 32" fill="none" xmlns="http://www.w3.org/2000/svg">
<path opacity="0.4" d="M21.777 29.3332H10.2215C5.70249 29.3332 2.66663 26.1637 2.66663 21.4455V10.5555C2.66663 5.83732 5.70249 2.6665 10.2215 2.6665H21.7784C26.2974 2.6665 29.3333 5.83732 29.3333 10.5555V21.4455C29.3333 26.1637 26.2974 29.3332 21.777 29.3332Z" fill="#716FE7"/>
<path fill-rule="evenodd" clip-rule="evenodd" d="M14.9933 11.5666C14.9933 13.3933 13.5066 14.88 11.68 14.88C9.85198 14.88 8.36665 13.3933 8.36665 11.5666C8.36665 9.73995 9.85198 8.25195 11.68 8.25195C13.5066 8.25195 14.9933 9.73995 14.9933 11.5666ZM25.8672 18.7834C26.1779 19.0847 26.4006 19.4287 26.5472 19.7954C26.9912 20.9047 26.7606 22.2381 26.2859 23.3367C25.7232 24.6447 24.6459 25.6327 23.2886 26.0647C22.6859 26.2581 22.0539 26.3407 21.4232 26.3407H10.2486C9.13658 26.3407 8.15258 26.0821 7.34591 25.5967C6.84058 25.2927 6.75125 24.5927 7.12591 24.1367C7.75258 23.3767 8.37125 22.6141 8.99525 21.8447C10.1846 20.3727 10.9859 19.9461 11.8766 20.3207C12.2379 20.4754 12.6006 20.7087 12.9739 20.9541C13.9686 21.6127 15.3512 22.5167 17.1726 21.5354C18.4175 20.8546 19.1402 19.6898 19.7692 18.6758L19.7819 18.6554C19.8242 18.5875 19.8662 18.5197 19.9081 18.4521C20.1219 18.1065 20.3326 17.7661 20.5712 17.4527C20.8672 17.0647 21.9659 15.8514 23.3859 16.7154C24.2912 17.2594 25.0526 17.9954 25.8672 18.7834Z" fill="#716FE7"/>
</svg>
