<svg width="395" height="396" viewBox="0 0 395 396" fill="none" xmlns="http://www.w3.org/2000/svg">
<g filter="url(#filter0_d_2352_797)">
<path d="M79.3523 48.4068C106.169 26.6452 138.475 12.7129 172.707 8.14634L191.67 150.296C183.62 151.37 176.023 154.646 169.717 159.763L79.3523 48.4068Z" fill="url(#paint0_linear_2352_797)"/>
<path d="M243.889 375.671C202.328 386.283 158.384 382.325 119.389 364.455C80.3936 346.585 48.7043 315.885 29.6073 277.476C10.5102 239.067 5.16021 195.271 14.4496 153.394C23.739 111.518 47.1062 74.092 80.6532 47.3608L169.87 159.325C161.938 165.646 156.412 174.496 154.215 184.398C152.019 194.301 153.284 204.657 157.8 213.739C162.315 222.821 169.809 230.081 179.03 234.306C188.251 238.532 198.642 239.468 208.469 236.958L243.889 375.671Z" fill="url(#paint1_linear_2352_797)"/>
<path d="M169.209 8.64657C195.431 4.6443 222.204 6.25132 247.759 13.3615C273.314 20.4716 297.07 32.9231 317.456 49.8934C337.843 66.8636 354.397 87.9664 366.025 111.808C377.653 135.649 384.09 161.686 384.91 188.199C385.731 214.712 380.917 241.097 370.786 265.612C360.655 290.127 345.438 312.213 326.14 330.412C306.841 348.61 283.901 362.507 258.835 371.184C233.769 379.861 207.147 383.121 180.727 380.748L193.556 237.914C199.768 238.472 206.029 237.706 211.923 235.665C217.817 233.625 223.212 230.357 227.75 226.077C232.288 221.798 235.866 216.604 238.249 210.84C240.631 205.075 241.763 198.87 241.57 192.636C241.377 186.401 239.863 180.279 237.129 174.672C234.395 169.066 230.502 164.104 225.708 160.113C220.914 156.122 215.328 153.194 209.319 151.522C203.309 149.851 197.014 149.473 190.847 150.414L169.209 8.64657Z" fill="url(#paint2_linear_2352_797)"/>
</g>
<path d="M140 78.5859V90H138.117V80.8203L135.328 81.7656V80.2109L139.773 78.5859H140ZM151.367 83.3594V85.2188C151.367 86.1094 151.279 86.8698 151.102 87.5C150.93 88.125 150.68 88.6328 150.352 89.0234C150.023 89.4141 149.63 89.7005 149.172 89.8828C148.719 90.0651 148.211 90.1562 147.648 90.1562C147.201 90.1562 146.784 90.099 146.398 89.9844C146.018 89.8698 145.674 89.6901 145.367 89.4453C145.06 89.2005 144.797 88.8854 144.578 88.5C144.365 88.1094 144.198 87.6432 144.078 87.1016C143.964 86.5599 143.906 85.9323 143.906 85.2188V83.3594C143.906 82.4635 143.995 81.7083 144.172 81.0938C144.349 80.474 144.602 79.9714 144.93 79.5859C145.258 79.1953 145.648 78.9115 146.102 78.7344C146.56 78.5573 147.07 78.4688 147.633 78.4688C148.086 78.4688 148.503 78.526 148.883 78.6406C149.268 78.75 149.612 78.9245 149.914 79.1641C150.221 79.4036 150.482 79.7161 150.695 80.1016C150.914 80.4818 151.081 80.9427 151.195 81.4844C151.31 82.0208 151.367 82.6458 151.367 83.3594ZM149.484 85.4844V83.0781C149.484 82.625 149.458 82.2266 149.406 81.8828C149.354 81.5339 149.276 81.2396 149.172 81C149.073 80.7552 148.948 80.5573 148.797 80.4062C148.646 80.25 148.474 80.138 148.281 80.0703C148.089 79.9974 147.872 79.9609 147.633 79.9609C147.341 79.9609 147.081 80.0182 146.852 80.1328C146.622 80.2422 146.43 80.4193 146.273 80.6641C146.117 80.9089 145.997 81.2318 145.914 81.6328C145.836 82.0286 145.797 82.5104 145.797 83.0781V85.4844C145.797 85.9427 145.823 86.3464 145.875 86.6953C145.927 87.0443 146.005 87.3438 146.109 87.5938C146.214 87.8385 146.339 88.0417 146.484 88.2031C146.635 88.3594 146.807 88.474 147 88.5469C147.198 88.6198 147.414 88.6562 147.648 88.6562C147.945 88.6562 148.208 88.599 148.438 88.4844C148.667 88.3698 148.859 88.1875 149.016 87.9375C149.172 87.6823 149.289 87.3516 149.367 86.9453C149.445 86.5391 149.484 86.0521 149.484 85.4844ZM152.969 81.4141V80.8125C152.969 80.3802 153.062 79.987 153.25 79.6328C153.438 79.2786 153.711 78.9948 154.07 78.7812C154.43 78.5677 154.862 78.4609 155.367 78.4609C155.888 78.4609 156.326 78.5677 156.68 78.7812C157.039 78.9948 157.312 79.2786 157.5 79.6328C157.688 79.987 157.781 80.3802 157.781 80.8125V81.4141C157.781 81.8359 157.688 82.224 157.5 82.5781C157.318 82.9323 157.047 83.2161 156.688 83.4297C156.333 83.6432 155.898 83.75 155.383 83.75C154.872 83.75 154.435 83.6432 154.07 83.4297C153.711 83.2161 153.438 82.9323 153.25 82.5781C153.062 82.224 152.969 81.8359 152.969 81.4141ZM154.273 80.8125V81.4141C154.273 81.6224 154.312 81.8203 154.391 82.0078C154.474 82.1953 154.599 82.3464 154.766 82.4609C154.932 82.5755 155.138 82.6328 155.383 82.6328C155.633 82.6328 155.836 82.5755 155.992 82.4609C156.154 82.3464 156.273 82.1953 156.352 82.0078C156.43 81.8203 156.469 81.6224 156.469 81.4141V80.8125C156.469 80.599 156.427 80.3984 156.344 80.2109C156.266 80.0182 156.146 79.8646 155.984 79.75C155.823 79.6354 155.617 79.5781 155.367 79.5781C155.128 79.5781 154.924 79.6354 154.758 79.75C154.596 79.8646 154.474 80.0182 154.391 80.2109C154.312 80.3984 154.273 80.599 154.273 80.8125ZM158.453 87.8203V87.2109C158.453 86.7839 158.547 86.3932 158.734 86.0391C158.927 85.6849 159.203 85.401 159.562 85.1875C159.922 84.974 160.354 84.8672 160.859 84.8672C161.38 84.8672 161.818 84.974 162.172 85.1875C162.531 85.401 162.802 85.6849 162.984 86.0391C163.172 86.3932 163.266 86.7839 163.266 87.2109V87.8203C163.266 88.2474 163.172 88.638 162.984 88.9922C162.802 89.3464 162.534 89.6302 162.18 89.8438C161.826 90.0573 161.393 90.1641 160.883 90.1641C160.367 90.1641 159.927 90.0573 159.562 89.8438C159.203 89.6302 158.927 89.3464 158.734 88.9922C158.547 88.638 158.453 88.2474 158.453 87.8203ZM159.766 87.2109V87.8203C159.766 88.0286 159.807 88.2266 159.891 88.4141C159.979 88.6016 160.107 88.7552 160.273 88.875C160.44 88.9896 160.641 89.0469 160.875 89.0469C161.141 89.0469 161.354 88.9896 161.516 88.875C161.677 88.7552 161.792 88.6042 161.859 88.4219C161.932 88.2344 161.969 88.0339 161.969 87.8203V87.2109C161.969 86.9974 161.927 86.7969 161.844 86.6094C161.766 86.4219 161.643 86.2708 161.477 86.1562C161.315 86.0417 161.109 85.9844 160.859 85.9844C160.615 85.9844 160.411 86.0417 160.25 86.1562C160.089 86.2708 159.966 86.4219 159.883 86.6094C159.805 86.7969 159.766 86.9974 159.766 87.2109ZM161.328 80.25L155.773 89.1406L154.812 88.5859L160.367 79.6953L161.328 80.25Z" fill="black"/>
<path d="M292.836 193.711L291.336 193.344L291.953 187.625H298.086V189.219H293.516L293.203 192.008C293.38 191.904 293.625 191.802 293.938 191.703C294.25 191.599 294.607 191.547 295.008 191.547C295.544 191.547 296.023 191.635 296.445 191.812C296.872 191.984 297.234 192.237 297.531 192.57C297.828 192.898 298.055 193.299 298.211 193.773C298.367 194.242 298.445 194.771 298.445 195.359C298.445 195.885 298.367 196.378 298.211 196.836C298.06 197.294 297.831 197.698 297.523 198.047C297.216 198.396 296.828 198.669 296.359 198.867C295.896 199.06 295.346 199.156 294.711 199.156C294.237 199.156 293.781 199.089 293.344 198.953C292.911 198.812 292.523 198.607 292.18 198.336C291.836 198.06 291.56 197.721 291.352 197.32C291.143 196.914 291.023 196.448 290.992 195.922H292.836C292.883 196.292 292.984 196.607 293.141 196.867C293.302 197.122 293.516 197.318 293.781 197.453C294.047 197.589 294.354 197.656 294.703 197.656C295.021 197.656 295.294 197.602 295.523 197.492C295.753 197.378 295.943 197.216 296.094 197.008C296.25 196.794 296.365 196.544 296.438 196.258C296.516 195.971 296.555 195.654 296.555 195.305C296.555 194.971 296.51 194.667 296.422 194.391C296.339 194.115 296.211 193.875 296.039 193.672C295.872 193.469 295.661 193.312 295.406 193.203C295.151 193.089 294.857 193.031 294.523 193.031C294.076 193.031 293.732 193.096 293.492 193.227C293.258 193.357 293.039 193.518 292.836 193.711ZM301.93 193.711L300.43 193.344L301.047 187.625H307.18V189.219H302.609L302.297 192.008C302.474 191.904 302.719 191.802 303.031 191.703C303.344 191.599 303.701 191.547 304.102 191.547C304.638 191.547 305.117 191.635 305.539 191.812C305.966 191.984 306.328 192.237 306.625 192.57C306.922 192.898 307.148 193.299 307.305 193.773C307.461 194.242 307.539 194.771 307.539 195.359C307.539 195.885 307.461 196.378 307.305 196.836C307.154 197.294 306.924 197.698 306.617 198.047C306.31 198.396 305.922 198.669 305.453 198.867C304.99 199.06 304.44 199.156 303.805 199.156C303.331 199.156 302.875 199.089 302.438 198.953C302.005 198.812 301.617 198.607 301.273 198.336C300.93 198.06 300.654 197.721 300.445 197.32C300.237 196.914 300.117 196.448 300.086 195.922H301.93C301.977 196.292 302.078 196.607 302.234 196.867C302.396 197.122 302.609 197.318 302.875 197.453C303.141 197.589 303.448 197.656 303.797 197.656C304.115 197.656 304.388 197.602 304.617 197.492C304.846 197.378 305.036 197.216 305.188 197.008C305.344 196.794 305.458 196.544 305.531 196.258C305.609 195.971 305.648 195.654 305.648 195.305C305.648 194.971 305.604 194.667 305.516 194.391C305.432 194.115 305.305 193.875 305.133 193.672C304.966 193.469 304.755 193.312 304.5 193.203C304.245 193.089 303.951 193.031 303.617 193.031C303.169 193.031 302.826 193.096 302.586 193.227C302.352 193.357 302.133 193.518 301.93 193.711ZM308.969 190.414V189.812C308.969 189.38 309.062 188.987 309.25 188.633C309.438 188.279 309.711 187.995 310.07 187.781C310.43 187.568 310.862 187.461 311.367 187.461C311.888 187.461 312.326 187.568 312.68 187.781C313.039 187.995 313.312 188.279 313.5 188.633C313.688 188.987 313.781 189.38 313.781 189.812V190.414C313.781 190.836 313.688 191.224 313.5 191.578C313.318 191.932 313.047 192.216 312.688 192.43C312.333 192.643 311.898 192.75 311.383 192.75C310.872 192.75 310.435 192.643 310.07 192.43C309.711 192.216 309.438 191.932 309.25 191.578C309.062 191.224 308.969 190.836 308.969 190.414ZM310.273 189.812V190.414C310.273 190.622 310.312 190.82 310.391 191.008C310.474 191.195 310.599 191.346 310.766 191.461C310.932 191.576 311.138 191.633 311.383 191.633C311.633 191.633 311.836 191.576 311.992 191.461C312.154 191.346 312.273 191.195 312.352 191.008C312.43 190.82 312.469 190.622 312.469 190.414V189.812C312.469 189.599 312.427 189.398 312.344 189.211C312.266 189.018 312.146 188.865 311.984 188.75C311.823 188.635 311.617 188.578 311.367 188.578C311.128 188.578 310.924 188.635 310.758 188.75C310.596 188.865 310.474 189.018 310.391 189.211C310.312 189.398 310.273 189.599 310.273 189.812ZM314.453 196.82V196.211C314.453 195.784 314.547 195.393 314.734 195.039C314.927 194.685 315.203 194.401 315.562 194.188C315.922 193.974 316.354 193.867 316.859 193.867C317.38 193.867 317.818 193.974 318.172 194.188C318.531 194.401 318.802 194.685 318.984 195.039C319.172 195.393 319.266 195.784 319.266 196.211V196.82C319.266 197.247 319.172 197.638 318.984 197.992C318.802 198.346 318.534 198.63 318.18 198.844C317.826 199.057 317.393 199.164 316.883 199.164C316.367 199.164 315.927 199.057 315.562 198.844C315.203 198.63 314.927 198.346 314.734 197.992C314.547 197.638 314.453 197.247 314.453 196.82ZM315.766 196.211V196.82C315.766 197.029 315.807 197.227 315.891 197.414C315.979 197.602 316.107 197.755 316.273 197.875C316.44 197.99 316.641 198.047 316.875 198.047C317.141 198.047 317.354 197.99 317.516 197.875C317.677 197.755 317.792 197.604 317.859 197.422C317.932 197.234 317.969 197.034 317.969 196.82V196.211C317.969 195.997 317.927 195.797 317.844 195.609C317.766 195.422 317.643 195.271 317.477 195.156C317.315 195.042 317.109 194.984 316.859 194.984C316.615 194.984 316.411 195.042 316.25 195.156C316.089 195.271 315.966 195.422 315.883 195.609C315.805 195.797 315.766 195.997 315.766 196.211ZM317.328 189.25L311.773 198.141L310.812 197.586L316.367 188.695L317.328 189.25Z" fill="black"/>
<path d="M78.0703 192.461H79.1953C79.6328 192.461 79.9948 192.385 80.2812 192.234C80.5729 192.083 80.7891 191.875 80.9297 191.609C81.0703 191.344 81.1406 191.039 81.1406 190.695C81.1406 190.336 81.0755 190.029 80.9453 189.773C80.8203 189.513 80.6276 189.312 80.3672 189.172C80.112 189.031 79.7865 188.961 79.3906 188.961C79.0573 188.961 78.7552 189.029 78.4844 189.164C78.2188 189.294 78.0078 189.482 77.8516 189.727C77.6953 189.966 77.6172 190.253 77.6172 190.586H75.7266C75.7266 189.982 75.8854 189.445 76.2031 188.977C76.5208 188.508 76.9531 188.141 77.5 187.875C78.0521 187.604 78.6719 187.469 79.3594 187.469C80.0938 187.469 80.7344 187.591 81.2812 187.836C81.8333 188.076 82.263 188.435 82.5703 188.914C82.8776 189.393 83.0312 189.987 83.0312 190.695C83.0312 191.018 82.9557 191.346 82.8047 191.68C82.6536 192.013 82.4297 192.318 82.1328 192.594C81.8359 192.865 81.4661 193.086 81.0234 193.258C80.5807 193.424 80.0677 193.508 79.4844 193.508H78.0703V192.461ZM78.0703 193.93V192.898H79.4844C80.151 192.898 80.7188 192.977 81.1875 193.133C81.6615 193.289 82.0469 193.505 82.3438 193.781C82.6406 194.052 82.8568 194.362 82.9922 194.711C83.1328 195.06 83.2031 195.43 83.2031 195.82C83.2031 196.352 83.1068 196.826 82.9141 197.242C82.7266 197.654 82.4583 198.003 82.1094 198.289C81.7604 198.576 81.3516 198.792 80.8828 198.938C80.4193 199.083 79.9141 199.156 79.3672 199.156C78.8776 199.156 78.4089 199.089 77.9609 198.953C77.513 198.818 77.112 198.617 76.7578 198.352C76.4036 198.081 76.1224 197.745 75.9141 197.344C75.7109 196.938 75.6094 196.469 75.6094 195.938H77.4922C77.4922 196.276 77.5703 196.576 77.7266 196.836C77.888 197.091 78.112 197.292 78.3984 197.438C78.6901 197.583 79.0234 197.656 79.3984 197.656C79.7943 197.656 80.1354 197.586 80.4219 197.445C80.7083 197.305 80.9271 197.096 81.0781 196.82C81.2344 196.544 81.3125 196.211 81.3125 195.82C81.3125 195.378 81.2266 195.018 81.0547 194.742C80.8828 194.466 80.638 194.263 80.3203 194.133C80.0026 193.997 79.6276 193.93 79.1953 193.93H78.0703ZM86.9297 193.711L85.4297 193.344L86.0469 187.625H92.1797V189.219H87.6094L87.2969 192.008C87.474 191.904 87.7188 191.802 88.0312 191.703C88.3438 191.599 88.7005 191.547 89.1016 191.547C89.638 191.547 90.1172 191.635 90.5391 191.812C90.9661 191.984 91.3281 192.237 91.625 192.57C91.9219 192.898 92.1484 193.299 92.3047 193.773C92.4609 194.242 92.5391 194.771 92.5391 195.359C92.5391 195.885 92.4609 196.378 92.3047 196.836C92.1536 197.294 91.9245 197.698 91.6172 198.047C91.3099 198.396 90.9219 198.669 90.4531 198.867C89.9896 199.06 89.4401 199.156 88.8047 199.156C88.3307 199.156 87.875 199.089 87.4375 198.953C87.0052 198.812 86.6172 198.607 86.2734 198.336C85.9297 198.06 85.6536 197.721 85.4453 197.32C85.237 196.914 85.1172 196.448 85.0859 195.922H86.9297C86.9766 196.292 87.0781 196.607 87.2344 196.867C87.3958 197.122 87.6094 197.318 87.875 197.453C88.1406 197.589 88.4479 197.656 88.7969 197.656C89.1146 197.656 89.388 197.602 89.6172 197.492C89.8464 197.378 90.0365 197.216 90.1875 197.008C90.3438 196.794 90.4583 196.544 90.5312 196.258C90.6094 195.971 90.6484 195.654 90.6484 195.305C90.6484 194.971 90.6042 194.667 90.5156 194.391C90.4323 194.115 90.3047 193.875 90.1328 193.672C89.9661 193.469 89.7552 193.312 89.5 193.203C89.2448 193.089 88.9505 193.031 88.6172 193.031C88.1693 193.031 87.8255 193.096 87.5859 193.227C87.3516 193.357 87.1328 193.518 86.9297 193.711ZM93.9688 190.414V189.812C93.9688 189.38 94.0625 188.987 94.25 188.633C94.4375 188.279 94.7109 187.995 95.0703 187.781C95.4297 187.568 95.862 187.461 96.3672 187.461C96.888 187.461 97.3255 187.568 97.6797 187.781C98.0391 187.995 98.3125 188.279 98.5 188.633C98.6875 188.987 98.7812 189.38 98.7812 189.812V190.414C98.7812 190.836 98.6875 191.224 98.5 191.578C98.3177 191.932 98.0469 192.216 97.6875 192.43C97.3333 192.643 96.8984 192.75 96.3828 192.75C95.8724 192.75 95.4349 192.643 95.0703 192.43C94.7109 192.216 94.4375 191.932 94.25 191.578C94.0625 191.224 93.9688 190.836 93.9688 190.414ZM95.2734 189.812V190.414C95.2734 190.622 95.3125 190.82 95.3906 191.008C95.474 191.195 95.599 191.346 95.7656 191.461C95.9323 191.576 96.138 191.633 96.3828 191.633C96.6328 191.633 96.8359 191.576 96.9922 191.461C97.1536 191.346 97.2734 191.195 97.3516 191.008C97.4297 190.82 97.4688 190.622 97.4688 190.414V189.812C97.4688 189.599 97.4271 189.398 97.3438 189.211C97.2656 189.018 97.1458 188.865 96.9844 188.75C96.8229 188.635 96.6172 188.578 96.3672 188.578C96.1276 188.578 95.9245 188.635 95.7578 188.75C95.5964 188.865 95.474 189.018 95.3906 189.211C95.3125 189.398 95.2734 189.599 95.2734 189.812ZM99.4531 196.82V196.211C99.4531 195.784 99.5469 195.393 99.7344 195.039C99.9271 194.685 100.203 194.401 100.562 194.188C100.922 193.974 101.354 193.867 101.859 193.867C102.38 193.867 102.818 193.974 103.172 194.188C103.531 194.401 103.802 194.685 103.984 195.039C104.172 195.393 104.266 195.784 104.266 196.211V196.82C104.266 197.247 104.172 197.638 103.984 197.992C103.802 198.346 103.534 198.63 103.18 198.844C102.826 199.057 102.393 199.164 101.883 199.164C101.367 199.164 100.927 199.057 100.562 198.844C100.203 198.63 99.9271 198.346 99.7344 197.992C99.5469 197.638 99.4531 197.247 99.4531 196.82ZM100.766 196.211V196.82C100.766 197.029 100.807 197.227 100.891 197.414C100.979 197.602 101.107 197.755 101.273 197.875C101.44 197.99 101.641 198.047 101.875 198.047C102.141 198.047 102.354 197.99 102.516 197.875C102.677 197.755 102.792 197.604 102.859 197.422C102.932 197.234 102.969 197.034 102.969 196.82V196.211C102.969 195.997 102.927 195.797 102.844 195.609C102.766 195.422 102.643 195.271 102.477 195.156C102.315 195.042 102.109 194.984 101.859 194.984C101.615 194.984 101.411 195.042 101.25 195.156C101.089 195.271 100.966 195.422 100.883 195.609C100.805 195.797 100.766 195.997 100.766 196.211ZM102.328 189.25L96.7734 198.141L95.8125 197.586L101.367 188.695L102.328 189.25Z" fill="black"/>
<defs>
<filter id="filter0_d_2352_797" x="-0.000244141" y="0.499985" width="395" height="395" filterUnits="userSpaceOnUse" color-interpolation-filters="sRGB">
<feFlood flood-opacity="0" result="BackgroundImageFix"/>
<feColorMatrix in="SourceAlpha" type="matrix" values="0 0 0 0 0 0 0 0 0 0 0 0 0 0 0 0 0 0 127 0" result="hardAlpha"/>
<feOffset dy="4"/>
<feGaussianBlur stdDeviation="5"/>
<feComposite in2="hardAlpha" operator="out"/>
<feColorMatrix type="matrix" values="0 0 0 0 1 0 0 0 0 1 0 0 0 0 1 0 0 0 0.3 0"/>
<feBlend mode="normal" in2="BackgroundImageFix" result="effect1_dropShadow_2352_797"/>
<feBlend mode="normal" in="SourceGraphic" in2="effect1_dropShadow_2352_797" result="shape"/>
</filter>
<linearGradient id="paint0_linear_2352_797" x1="197.5" y1="6.5" x2="197.5" y2="381.5" gradientUnits="userSpaceOnUse">
<stop stop-color="#FFF3EF"/>
<stop offset="1" stop-color="#FFF3EF" stop-opacity="0.69"/>
</linearGradient>
<linearGradient id="paint1_linear_2352_797" x1="-59" y1="33.5" x2="360.5" y2="572.5" gradientUnits="userSpaceOnUse">
<stop stop-color="#EBF0F9"/>
<stop offset="1" stop-color="#EBF0F9" stop-opacity="0.59"/>
</linearGradient>
<linearGradient id="paint2_linear_2352_797" x1="197.5" y1="6.5" x2="370.5" y2="438.5" gradientUnits="userSpaceOnUse">
<stop stop-color="#D5CEA3"/>
<stop offset="1" stop-color="#F7F2D5"/>
</linearGradient>
</defs>
</svg>
