<svg width="279" height="279" viewBox="0 0 279 279" fill="none" xmlns="http://www.w3.org/2000/svg">
<g filter="url(#filter0_d_2352_832)">
<path d="M58.8074 34.2135C77.4633 19.3508 99.8618 9.92928 123.532 6.9882L135.745 105.28C130.179 105.972 124.912 108.187 120.525 111.682L58.8074 34.2135Z" fill="url(#paint0_linear_2352_832)"/>
<path d="M171.539 260.974C142.834 268.304 112.484 265.57 85.5513 253.228C58.6185 240.886 36.7318 219.682 23.5421 193.154C10.3524 166.626 6.65732 136.378 13.0732 107.455C19.4891 78.5322 35.628 52.6836 58.7978 34.2212L120.417 111.551C114.938 115.917 111.122 122.029 109.605 128.868C108.088 135.708 108.961 142.86 112.08 149.133C115.199 155.406 120.375 160.42 126.743 163.338C133.112 166.257 140.288 166.903 147.076 165.17L171.539 260.974Z" fill="url(#paint1_linear_2352_832)"/>
<path d="M119.961 7.48257C138.071 4.71833 156.562 5.82825 174.212 10.739C191.862 15.6497 208.269 24.2496 222.35 35.9703C236.43 47.6911 247.864 62.2661 255.895 78.7325C263.925 95.1988 268.371 113.182 268.938 131.493C269.505 149.805 266.18 168.028 259.183 184.96C252.186 201.892 241.676 217.146 228.347 229.715C215.018 242.284 199.175 251.882 181.862 257.875C164.55 263.868 146.163 266.12 127.916 264.481L136.776 165.83C141.067 166.215 145.39 165.686 149.462 164.277C153.533 162.868 157.258 160.611 160.393 157.655C163.527 154.699 165.998 151.112 167.644 147.131C169.289 143.149 170.071 138.864 169.938 134.558C169.804 130.252 168.759 126.023 166.87 122.151C164.982 118.279 162.293 114.852 158.982 112.095C155.671 109.339 151.813 107.317 147.663 106.162C143.512 105.007 139.164 104.746 134.905 105.396L119.961 7.48257Z" fill="url(#paint2_linear_2352_832)"/>
</g>
<path d="M98.5 53.4395V62H97.0879V55.1152L94.9961 55.8242V54.6582L98.3301 53.4395H98.5ZM107.025 57.0195V58.4141C107.025 59.082 106.959 59.6523 106.826 60.125C106.697 60.5938 106.51 60.9746 106.264 61.2676C106.018 61.5605 105.723 61.7754 105.379 61.9121C105.039 62.0488 104.658 62.1172 104.236 62.1172C103.9 62.1172 103.588 62.0742 103.299 61.9883C103.014 61.9023 102.756 61.7676 102.525 61.584C102.295 61.4004 102.098 61.1641 101.934 60.875C101.773 60.582 101.648 60.2324 101.559 59.8262C101.473 59.4199 101.43 58.9492 101.43 58.4141V57.0195C101.43 56.3477 101.496 55.7812 101.629 55.3203C101.762 54.8555 101.951 54.4785 102.197 54.1895C102.443 53.8965 102.736 53.6836 103.076 53.5508C103.42 53.418 103.803 53.3516 104.225 53.3516C104.564 53.3516 104.877 53.3945 105.162 53.4805C105.451 53.5625 105.709 53.6934 105.936 53.873C106.166 54.0527 106.361 54.2871 106.521 54.5762C106.686 54.8613 106.811 55.207 106.896 55.6133C106.982 56.0156 107.025 56.4844 107.025 57.0195ZM105.613 58.6133V56.8086C105.613 56.4688 105.594 56.1699 105.555 55.9121C105.516 55.6504 105.457 55.4297 105.379 55.25C105.305 55.0664 105.211 54.918 105.098 54.8047C104.984 54.6875 104.855 54.6035 104.711 54.5527C104.566 54.498 104.404 54.4707 104.225 54.4707C104.006 54.4707 103.811 54.5137 103.639 54.5996C103.467 54.6816 103.322 54.8145 103.205 54.998C103.088 55.1816 102.998 55.4238 102.936 55.7246C102.877 56.0215 102.848 56.3828 102.848 56.8086V58.6133C102.848 58.957 102.867 59.2598 102.906 59.5215C102.945 59.7832 103.004 60.0078 103.082 60.1953C103.16 60.3789 103.254 60.5312 103.363 60.6523C103.477 60.7695 103.605 60.8555 103.75 60.9102C103.898 60.9648 104.061 60.9922 104.236 60.9922C104.459 60.9922 104.656 60.9492 104.828 60.8633C105 60.7773 105.145 60.6406 105.262 60.4531C105.379 60.2617 105.467 60.0137 105.525 59.709C105.584 59.4043 105.613 59.0391 105.613 58.6133ZM108.227 55.5605V55.1094C108.227 54.7852 108.297 54.4902 108.438 54.2246C108.578 53.959 108.783 53.7461 109.053 53.5859C109.322 53.4258 109.646 53.3457 110.025 53.3457C110.416 53.3457 110.744 53.4258 111.01 53.5859C111.279 53.7461 111.484 53.959 111.625 54.2246C111.766 54.4902 111.836 54.7852 111.836 55.1094V55.5605C111.836 55.877 111.766 56.168 111.625 56.4336C111.488 56.6992 111.285 56.9121 111.016 57.0723C110.75 57.2324 110.424 57.3125 110.037 57.3125C109.654 57.3125 109.326 57.2324 109.053 57.0723C108.783 56.9121 108.578 56.6992 108.438 56.4336C108.297 56.168 108.227 55.877 108.227 55.5605ZM109.205 55.1094V55.5605C109.205 55.7168 109.234 55.8652 109.293 56.0059C109.355 56.1465 109.449 56.2598 109.574 56.3457C109.699 56.4316 109.854 56.4746 110.037 56.4746C110.225 56.4746 110.377 56.4316 110.494 56.3457C110.615 56.2598 110.705 56.1465 110.764 56.0059C110.822 55.8652 110.852 55.7168 110.852 55.5605V55.1094C110.852 54.9492 110.82 54.7988 110.758 54.6582C110.699 54.5137 110.609 54.3984 110.488 54.3125C110.367 54.2266 110.213 54.1836 110.025 54.1836C109.846 54.1836 109.693 54.2266 109.568 54.3125C109.447 54.3984 109.355 54.5137 109.293 54.6582C109.234 54.7988 109.205 54.9492 109.205 55.1094ZM112.34 60.3652V59.9082C112.34 59.5879 112.41 59.2949 112.551 59.0293C112.695 58.7637 112.902 58.5508 113.172 58.3906C113.441 58.2305 113.766 58.1504 114.145 58.1504C114.535 58.1504 114.863 58.2305 115.129 58.3906C115.398 58.5508 115.602 58.7637 115.738 59.0293C115.879 59.2949 115.949 59.5879 115.949 59.9082V60.3652C115.949 60.6855 115.879 60.9785 115.738 61.2441C115.602 61.5098 115.4 61.7227 115.135 61.8828C114.869 62.043 114.545 62.123 114.162 62.123C113.775 62.123 113.445 62.043 113.172 61.8828C112.902 61.7227 112.695 61.5098 112.551 61.2441C112.41 60.9785 112.34 60.6855 112.34 60.3652ZM113.324 59.9082V60.3652C113.324 60.5215 113.355 60.6699 113.418 60.8105C113.484 60.9512 113.58 61.0664 113.705 61.1562C113.83 61.2422 113.98 61.2852 114.156 61.2852C114.355 61.2852 114.516 61.2422 114.637 61.1562C114.758 61.0664 114.844 60.9531 114.895 60.8164C114.949 60.6758 114.977 60.5254 114.977 60.3652V59.9082C114.977 59.748 114.945 59.5977 114.883 59.457C114.824 59.3164 114.732 59.2031 114.607 59.1172C114.486 59.0312 114.332 58.9883 114.145 58.9883C113.961 58.9883 113.809 59.0312 113.688 59.1172C113.566 59.2031 113.475 59.3164 113.412 59.457C113.354 59.5977 113.324 59.748 113.324 59.9082ZM114.496 54.6875L110.33 61.3555L109.609 60.9395L113.775 54.2715L114.496 54.6875Z" fill="black"/>
<path d="M206.127 136.033L205.002 135.758L205.465 131.469H210.064V132.664H206.637L206.402 134.756C206.535 134.678 206.719 134.602 206.953 134.527C207.188 134.449 207.455 134.41 207.756 134.41C208.158 134.41 208.518 134.477 208.834 134.609C209.154 134.738 209.426 134.928 209.648 135.178C209.871 135.424 210.041 135.725 210.158 136.08C210.275 136.432 210.334 136.828 210.334 137.27C210.334 137.664 210.275 138.033 210.158 138.377C210.045 138.721 209.873 139.023 209.643 139.285C209.412 139.547 209.121 139.752 208.77 139.9C208.422 140.045 208.01 140.117 207.533 140.117C207.178 140.117 206.836 140.066 206.508 139.965C206.184 139.859 205.893 139.705 205.635 139.502C205.377 139.295 205.17 139.041 205.014 138.74C204.857 138.436 204.768 138.086 204.744 137.691H206.127C206.162 137.969 206.238 138.205 206.355 138.4C206.477 138.592 206.637 138.738 206.836 138.84C207.035 138.941 207.266 138.992 207.527 138.992C207.766 138.992 207.971 138.951 208.143 138.869C208.314 138.783 208.457 138.662 208.57 138.506C208.688 138.346 208.773 138.158 208.828 137.943C208.887 137.729 208.916 137.49 208.916 137.229C208.916 136.979 208.883 136.75 208.816 136.543C208.754 136.336 208.658 136.156 208.529 136.004C208.404 135.852 208.246 135.734 208.055 135.652C207.863 135.566 207.643 135.523 207.393 135.523C207.057 135.523 206.799 135.572 206.619 135.67C206.443 135.768 206.279 135.889 206.127 136.033ZM212.947 136.033L211.822 135.758L212.285 131.469H216.885V132.664H213.457L213.223 134.756C213.355 134.678 213.539 134.602 213.773 134.527C214.008 134.449 214.275 134.41 214.576 134.41C214.979 134.41 215.338 134.477 215.654 134.609C215.975 134.738 216.246 134.928 216.469 135.178C216.691 135.424 216.861 135.725 216.979 136.08C217.096 136.432 217.154 136.828 217.154 137.27C217.154 137.664 217.096 138.033 216.979 138.377C216.865 138.721 216.693 139.023 216.463 139.285C216.232 139.547 215.941 139.752 215.59 139.9C215.242 140.045 214.83 140.117 214.354 140.117C213.998 140.117 213.656 140.066 213.328 139.965C213.004 139.859 212.713 139.705 212.455 139.502C212.197 139.295 211.99 139.041 211.834 138.74C211.678 138.436 211.588 138.086 211.564 137.691H212.947C212.982 137.969 213.059 138.205 213.176 138.4C213.297 138.592 213.457 138.738 213.656 138.84C213.855 138.941 214.086 138.992 214.348 138.992C214.586 138.992 214.791 138.951 214.963 138.869C215.135 138.783 215.277 138.662 215.391 138.506C215.508 138.346 215.594 138.158 215.648 137.943C215.707 137.729 215.736 137.49 215.736 137.229C215.736 136.979 215.703 136.75 215.637 136.543C215.574 136.336 215.479 136.156 215.35 136.004C215.225 135.852 215.066 135.734 214.875 135.652C214.684 135.566 214.463 135.523 214.213 135.523C213.877 135.523 213.619 135.572 213.439 135.67C213.264 135.768 213.1 135.889 212.947 136.033ZM218.227 133.561V133.109C218.227 132.785 218.297 132.49 218.438 132.225C218.578 131.959 218.783 131.746 219.053 131.586C219.322 131.426 219.646 131.346 220.025 131.346C220.416 131.346 220.744 131.426 221.01 131.586C221.279 131.746 221.484 131.959 221.625 132.225C221.766 132.49 221.836 132.785 221.836 133.109V133.561C221.836 133.877 221.766 134.168 221.625 134.434C221.488 134.699 221.285 134.912 221.016 135.072C220.75 135.232 220.424 135.312 220.037 135.312C219.654 135.312 219.326 135.232 219.053 135.072C218.783 134.912 218.578 134.699 218.438 134.434C218.297 134.168 218.227 133.877 218.227 133.561ZM219.205 133.109V133.561C219.205 133.717 219.234 133.865 219.293 134.006C219.355 134.146 219.449 134.26 219.574 134.346C219.699 134.432 219.854 134.475 220.037 134.475C220.225 134.475 220.377 134.432 220.494 134.346C220.615 134.26 220.705 134.146 220.764 134.006C220.822 133.865 220.852 133.717 220.852 133.561V133.109C220.852 132.949 220.82 132.799 220.758 132.658C220.699 132.514 220.609 132.398 220.488 132.312C220.367 132.227 220.213 132.184 220.025 132.184C219.846 132.184 219.693 132.227 219.568 132.312C219.447 132.398 219.355 132.514 219.293 132.658C219.234 132.799 219.205 132.949 219.205 133.109ZM222.34 138.365V137.908C222.34 137.588 222.41 137.295 222.551 137.029C222.695 136.764 222.902 136.551 223.172 136.391C223.441 136.23 223.766 136.15 224.145 136.15C224.535 136.15 224.863 136.23 225.129 136.391C225.398 136.551 225.602 136.764 225.738 137.029C225.879 137.295 225.949 137.588 225.949 137.908V138.365C225.949 138.686 225.879 138.979 225.738 139.244C225.602 139.51 225.4 139.723 225.135 139.883C224.869 140.043 224.545 140.123 224.162 140.123C223.775 140.123 223.445 140.043 223.172 139.883C222.902 139.723 222.695 139.51 222.551 139.244C222.41 138.979 222.34 138.686 222.34 138.365ZM223.324 137.908V138.365C223.324 138.521 223.355 138.67 223.418 138.811C223.484 138.951 223.58 139.066 223.705 139.156C223.83 139.242 223.98 139.285 224.156 139.285C224.355 139.285 224.516 139.242 224.637 139.156C224.758 139.066 224.844 138.953 224.895 138.816C224.949 138.676 224.977 138.525 224.977 138.365V137.908C224.977 137.748 224.945 137.598 224.883 137.457C224.824 137.316 224.732 137.203 224.607 137.117C224.486 137.031 224.332 136.988 224.145 136.988C223.961 136.988 223.809 137.031 223.688 137.117C223.566 137.203 223.475 137.316 223.412 137.457C223.354 137.598 223.324 137.748 223.324 137.908ZM224.496 132.688L220.33 139.355L219.609 138.939L223.775 132.271L224.496 132.688Z" fill="black"/>
<path d="M54.3027 135.096H55.1465C55.4746 135.096 55.7461 135.039 55.9609 134.926C56.1797 134.812 56.3418 134.656 56.4473 134.457C56.5527 134.258 56.6055 134.029 56.6055 133.771C56.6055 133.502 56.5566 133.271 56.459 133.08C56.3652 132.885 56.2207 132.734 56.0254 132.629C55.834 132.523 55.5898 132.471 55.293 132.471C55.043 132.471 54.8164 132.521 54.6133 132.623C54.4141 132.721 54.2559 132.861 54.1387 133.045C54.0215 133.225 53.9629 133.439 53.9629 133.689H52.5449C52.5449 133.236 52.6641 132.834 52.9023 132.482C53.1406 132.131 53.4648 131.855 53.875 131.656C54.2891 131.453 54.7539 131.352 55.2695 131.352C55.8203 131.352 56.3008 131.443 56.7109 131.627C57.125 131.807 57.4473 132.076 57.6777 132.436C57.9082 132.795 58.0234 133.24 58.0234 133.771C58.0234 134.014 57.9668 134.26 57.8535 134.51C57.7402 134.76 57.5723 134.988 57.3496 135.195C57.127 135.398 56.8496 135.564 56.5176 135.693C56.1855 135.818 55.8008 135.881 55.3633 135.881H54.3027V135.096ZM54.3027 136.197V135.424H55.3633C55.8633 135.424 56.2891 135.482 56.6406 135.6C56.9961 135.717 57.2852 135.879 57.5078 136.086C57.7305 136.289 57.8926 136.521 57.9941 136.783C58.0996 137.045 58.1523 137.322 58.1523 137.615C58.1523 138.014 58.0801 138.369 57.9355 138.682C57.7949 138.99 57.5938 139.252 57.332 139.467C57.0703 139.682 56.7637 139.844 56.4121 139.953C56.0645 140.062 55.6855 140.117 55.2754 140.117C54.9082 140.117 54.5566 140.066 54.2207 139.965C53.8848 139.863 53.584 139.713 53.3184 139.514C53.0527 139.311 52.8418 139.059 52.6855 138.758C52.5332 138.453 52.457 138.102 52.457 137.703H53.8691C53.8691 137.957 53.9277 138.182 54.0449 138.377C54.166 138.568 54.334 138.719 54.5488 138.828C54.7676 138.938 55.0176 138.992 55.2988 138.992C55.5957 138.992 55.8516 138.939 56.0664 138.834C56.2812 138.729 56.4453 138.572 56.5586 138.365C56.6758 138.158 56.7344 137.908 56.7344 137.615C56.7344 137.283 56.6699 137.014 56.541 136.807C56.4121 136.6 56.2285 136.447 55.9902 136.35C55.752 136.248 55.4707 136.197 55.1465 136.197H54.3027ZM60.9473 136.033L59.8223 135.758L60.2852 131.469H64.8848V132.664H61.457L61.2227 134.756C61.3555 134.678 61.5391 134.602 61.7734 134.527C62.0078 134.449 62.2754 134.41 62.5762 134.41C62.9785 134.41 63.3379 134.477 63.6543 134.609C63.9746 134.738 64.2461 134.928 64.4688 135.178C64.6914 135.424 64.8613 135.725 64.9785 136.08C65.0957 136.432 65.1543 136.828 65.1543 137.27C65.1543 137.664 65.0957 138.033 64.9785 138.377C64.8652 138.721 64.6934 139.023 64.4629 139.285C64.2324 139.547 63.9414 139.752 63.5898 139.9C63.2422 140.045 62.8301 140.117 62.3535 140.117C61.998 140.117 61.6562 140.066 61.3281 139.965C61.0039 139.859 60.7129 139.705 60.4551 139.502C60.1973 139.295 59.9902 139.041 59.834 138.74C59.6777 138.436 59.5879 138.086 59.5645 137.691H60.9473C60.9824 137.969 61.0586 138.205 61.1758 138.4C61.2969 138.592 61.457 138.738 61.6562 138.84C61.8555 138.941 62.0859 138.992 62.3477 138.992C62.5859 138.992 62.791 138.951 62.9629 138.869C63.1348 138.783 63.2773 138.662 63.3906 138.506C63.5078 138.346 63.5938 138.158 63.6484 137.943C63.707 137.729 63.7363 137.49 63.7363 137.229C63.7363 136.979 63.7031 136.75 63.6367 136.543C63.5742 136.336 63.4785 136.156 63.3496 136.004C63.2246 135.852 63.0664 135.734 62.875 135.652C62.6836 135.566 62.4629 135.523 62.2129 135.523C61.877 135.523 61.6191 135.572 61.4395 135.67C61.2637 135.768 61.0996 135.889 60.9473 136.033ZM66.2266 133.561V133.109C66.2266 132.785 66.2969 132.49 66.4375 132.225C66.5781 131.959 66.7832 131.746 67.0527 131.586C67.3223 131.426 67.6465 131.346 68.0254 131.346C68.416 131.346 68.7441 131.426 69.0098 131.586C69.2793 131.746 69.4844 131.959 69.625 132.225C69.7656 132.49 69.8359 132.785 69.8359 133.109V133.561C69.8359 133.877 69.7656 134.168 69.625 134.434C69.4883 134.699 69.2852 134.912 69.0156 135.072C68.75 135.232 68.4238 135.312 68.0371 135.312C67.6543 135.312 67.3262 135.232 67.0527 135.072C66.7832 134.912 66.5781 134.699 66.4375 134.434C66.2969 134.168 66.2266 133.877 66.2266 133.561ZM67.2051 133.109V133.561C67.2051 133.717 67.2344 133.865 67.293 134.006C67.3555 134.146 67.4492 134.26 67.5742 134.346C67.6992 134.432 67.8535 134.475 68.0371 134.475C68.2246 134.475 68.377 134.432 68.4941 134.346C68.6152 134.26 68.7051 134.146 68.7637 134.006C68.8223 133.865 68.8516 133.717 68.8516 133.561V133.109C68.8516 132.949 68.8203 132.799 68.7578 132.658C68.6992 132.514 68.6094 132.398 68.4883 132.312C68.3672 132.227 68.2129 132.184 68.0254 132.184C67.8457 132.184 67.6934 132.227 67.5684 132.312C67.4473 132.398 67.3555 132.514 67.293 132.658C67.2344 132.799 67.2051 132.949 67.2051 133.109ZM70.3398 138.365V137.908C70.3398 137.588 70.4102 137.295 70.5508 137.029C70.6953 136.764 70.9023 136.551 71.1719 136.391C71.4414 136.23 71.7656 136.15 72.1445 136.15C72.5352 136.15 72.8633 136.23 73.1289 136.391C73.3984 136.551 73.6016 136.764 73.7383 137.029C73.8789 137.295 73.9492 137.588 73.9492 137.908V138.365C73.9492 138.686 73.8789 138.979 73.7383 139.244C73.6016 139.51 73.4004 139.723 73.1348 139.883C72.8691 140.043 72.5449 140.123 72.1621 140.123C71.7754 140.123 71.4453 140.043 71.1719 139.883C70.9023 139.723 70.6953 139.51 70.5508 139.244C70.4102 138.979 70.3398 138.686 70.3398 138.365ZM71.3242 137.908V138.365C71.3242 138.521 71.3555 138.67 71.418 138.811C71.4844 138.951 71.5801 139.066 71.7051 139.156C71.8301 139.242 71.9805 139.285 72.1562 139.285C72.3555 139.285 72.5156 139.242 72.6367 139.156C72.7578 139.066 72.8438 138.953 72.8945 138.816C72.9492 138.676 72.9766 138.525 72.9766 138.365V137.908C72.9766 137.748 72.9453 137.598 72.8828 137.457C72.8242 137.316 72.7324 137.203 72.6074 137.117C72.4863 137.031 72.332 136.988 72.1445 136.988C71.9609 136.988 71.8086 137.031 71.6875 137.117C71.5664 137.203 71.4746 137.316 71.4121 137.457C71.3535 137.598 71.3242 137.748 71.3242 137.908ZM72.4961 132.688L68.3301 139.355L67.6094 138.939L71.7754 132.271L72.4961 132.688Z" fill="black"/>
<defs>
<filter id="filter0_d_2352_832" x="-0.00012207" y="0" width="279" height="279" filterUnits="userSpaceOnUse" color-interpolation-filters="sRGB">
<feFlood flood-opacity="0" result="BackgroundImageFix"/>
<feColorMatrix in="SourceAlpha" type="matrix" values="0 0 0 0 0 0 0 0 0 0 0 0 0 0 0 0 0 0 127 0" result="hardAlpha"/>
<feOffset dy="4"/>
<feGaussianBlur stdDeviation="5"/>
<feComposite in2="hardAlpha" operator="out"/>
<feColorMatrix type="matrix" values="0 0 0 0 1 0 0 0 0 1 0 0 0 0 1 0 0 0 0.3 0"/>
<feBlend mode="normal" in2="BackgroundImageFix" result="effect1_dropShadow_2352_832"/>
<feBlend mode="normal" in="SourceGraphic" in2="effect1_dropShadow_2352_832" result="shape"/>
</filter>
<linearGradient id="paint0_linear_2352_832" x1="139.5" y1="6" x2="139.5" y2="265" gradientUnits="userSpaceOnUse">
<stop stop-color="#FFF3EF"/>
<stop offset="1" stop-color="#FFF3EF" stop-opacity="0.69"/>
</linearGradient>
<linearGradient id="paint1_linear_2352_832" x1="-37.656" y1="24.648" x2="252.079" y2="396.917" gradientUnits="userSpaceOnUse">
<stop stop-color="#EBF0F9"/>
<stop offset="1" stop-color="#EBF0F9" stop-opacity="0.59"/>
</linearGradient>
<linearGradient id="paint2_linear_2352_832" x1="139.5" y1="6" x2="258.985" y2="304.368" gradientUnits="userSpaceOnUse">
<stop stop-color="#D5CEA3"/>
<stop offset="1" stop-color="#F7F2D5"/>
</linearGradient>
</defs>
</svg>
