<svg width="26" height="26" viewBox="0 0 26 26" fill="none" xmlns="http://www.w3.org/2000/svg">
<path d="M13.002 0.000854492C5.83432 0.000854492 0.00195312 5.8316 0.00195312 13C0.00195312 20.1685 5.83432 25.9992 13.002 25.9992C20.1696 25.9992 26.002 20.1685 26.002 13C26.002 5.8316 20.1696 0.000854492 13.002 0.000854492ZM13.002 25.1334C6.31184 25.1334 0.86943 19.6902 0.86943 13C0.86943 6.30993 6.31184 0.86671 13.002 0.86671C19.6921 0.86671 25.1345 6.30993 25.1345 13C25.1345 19.6902 19.6921 25.1334 13.002 25.1334Z" fill="#626366"/>
<path d="M15.8397 5.70352H13.6766C10.9218 5.67595 10.5699 7.38091 10.5699 9.22612V10.5679H9.35385C9.29889 10.5605 9.24297 10.566 9.19044 10.5837C9.13791 10.6015 9.09019 10.6312 9.05098 10.6704C9.01177 10.7096 8.98212 10.7573 8.96435 10.8098C8.94657 10.8624 8.94115 10.9183 8.94849 10.9732V13.4054C8.94115 13.4604 8.94657 13.5163 8.96435 13.5688C8.98212 13.6214 9.01177 13.6691 9.05098 13.7083C9.09019 13.7475 9.13791 13.7771 9.19044 13.7949C9.24297 13.8127 9.29889 13.8181 9.35385 13.8108H10.5699V19.8912C10.5632 19.9463 10.5691 20.0022 10.5872 20.0546C10.6054 20.107 10.6353 20.1546 10.6746 20.1937C10.714 20.2328 10.7617 20.2624 10.8143 20.2803C10.8668 20.2981 10.9227 20.3037 10.9777 20.2966H13.4545C13.6937 20.3242 13.8874 20.1304 13.8112 19.8912L13.8128 13.8108H15.8397C15.8946 13.8181 15.9505 13.8127 16.0031 13.7949C16.0556 13.7771 16.1033 13.7475 16.1425 13.7083C16.1817 13.6691 16.2114 13.6214 16.2292 13.5688C16.2469 13.5163 16.2524 13.4604 16.245 13.4054V10.9732C16.2524 10.9183 16.2469 10.8624 16.2292 10.8098C16.2114 10.7573 16.1817 10.7096 16.1425 10.6704C16.1033 10.6312 16.0556 10.6015 16.0031 10.5837C15.9505 10.566 15.8946 10.5605 15.8397 10.5679H13.8104L13.8128 9.35179C13.8915 8.83373 13.8915 8.91805 14.3722 8.94642H15.8226C15.9353 8.92129 16.0553 8.93507 16.1396 8.85319C16.2239 8.77131 16.2726 8.65943 16.2442 8.54106V6.10888C16.2517 6.05396 16.2464 5.99805 16.2287 5.94552C16.2111 5.89298 16.1815 5.84524 16.1423 5.806C16.1032 5.76677 16.0555 5.73711 16.003 5.71933C15.9505 5.70156 15.8946 5.69614 15.8397 5.70352ZM15.4059 8.0903L14.3893 8.05138C13.1302 8.05138 13.0248 8.73482 13.0248 9.43448L13.0216 10.9716C13.0215 11.0285 13.0326 11.0849 13.0543 11.1375C13.076 11.1902 13.1079 11.238 13.1481 11.2783C13.1883 11.3186 13.2361 11.3505 13.2886 11.3723C13.3412 11.3941 13.3976 11.4054 13.4545 11.4054H15.4343V12.9717H13.4561C13.3412 12.9717 13.231 13.0173 13.1497 13.0984C13.0684 13.1796 13.0226 13.2897 13.0224 13.4046L13.0216 19.4859H11.3807V13.4054C11.3807 13.1663 11.2177 12.9725 10.9777 12.9725H9.75922V11.4062H10.9777C11.0346 11.4063 11.091 11.3951 11.1436 11.3734C11.1961 11.3517 11.2439 11.3199 11.2842 11.2797C11.3653 11.1978 11.3799 11.0876 11.3799 10.9724V9.22531C11.3799 7.40766 11.7471 6.54181 13.6758 6.54181H15.4051L15.4059 8.0903Z" fill="#626366"/>
</svg>
