<svg width="28" height="28" viewBox="0 0 28 28" fill="none" xmlns="http://www.w3.org/2000/svg">
<rect y="-0.000244141" width="28" height="28" rx="4" fill="#D5CEA3"/>
<path d="M22.7969 19.4411C22.519 19.248 22.2745 19.0108 22.0728 18.739C21.5901 18.1905 20.9758 17.5103 19.8348 17.5103C18.6939 17.5103 18.1015 18.1686 17.5968 18.761C17.0922 19.3534 16.7631 19.7045 16.0171 19.7045C15.2711 19.7045 14.8981 19.2876 14.4374 18.761C13.9766 18.2344 13.3622 17.5103 12.1994 17.5103C11.0365 17.5103 10.466 18.1686 9.96136 18.761C9.45673 19.3534 9.12761 19.7045 8.38162 19.7045C7.63564 19.7045 7.26263 19.2876 6.80188 18.761C6.48867 18.3473 6.0926 18.0036 5.639 17.7517C5.42087 17.6426 5.15566 17.731 5.0466 17.9492C4.93753 18.1673 5.02593 18.4325 5.24406 18.5416C5.58856 18.7492 5.8932 19.0167 6.14363 19.3314C6.64826 19.9238 7.24066 20.5821 8.38162 20.5821C9.52258 20.5821 10.1149 19.9239 10.6196 19.3314C11.1242 18.739 11.4534 18.388 12.1994 18.388C12.9453 18.388 13.3184 18.8049 13.7791 19.3314C14.2398 19.858 14.8542 20.5821 16.0171 20.5821C17.18 20.5821 17.7504 19.9239 18.2551 19.3314C18.7597 18.739 19.0888 18.388 19.8348 18.388C20.5808 18.388 20.9538 18.8049 21.4146 19.3314C21.6703 19.6598 21.9735 19.9482 22.3141 20.1871C22.5201 20.3204 22.7952 20.2615 22.9285 20.0555C23.0618 19.8495 23.0029 19.5744 22.7969 19.4411Z" fill="#E5E5CB"/>
<path d="M22.7969 16.15C22.519 15.9569 22.2745 15.7197 22.0728 15.4479C21.5901 14.8994 20.9758 14.2192 19.8348 14.2192C18.6939 14.2192 18.1015 14.8774 17.5968 15.4699C17.0922 16.0623 16.7631 16.4133 16.0171 16.4133C15.2711 16.4133 14.8981 15.9964 14.4374 15.4699C13.9766 14.9433 13.3622 14.2192 12.1994 14.2192C11.0365 14.2192 10.466 14.8774 9.96136 15.4699C9.45673 16.0623 9.12761 16.4133 8.38162 16.4133C7.63564 16.4133 7.26263 15.9964 6.80188 15.4699C6.48867 15.0562 6.0926 14.7125 5.639 14.4606C5.42087 14.3515 5.15566 14.4399 5.0466 14.658C4.93753 14.8762 5.02593 15.1414 5.24406 15.2504C5.58856 15.4581 5.8932 15.7256 6.14363 16.0403C6.64826 16.6327 7.24066 17.291 8.38162 17.291C9.52258 17.291 10.1149 16.6327 10.6196 16.0403C11.1242 15.4479 11.4534 15.0968 12.1994 15.0968C12.9453 15.0968 13.3184 15.5137 13.7791 16.0403C14.2398 16.5669 14.8542 17.291 16.0171 17.291C17.18 17.291 17.7504 16.6327 18.2551 16.0403C18.7597 15.4479 19.0888 15.0968 19.8348 15.0968C20.5808 15.0968 20.9538 15.5137 21.4146 16.0403C21.6703 16.3686 21.9735 16.657 22.3141 16.896C22.5201 17.0293 22.7952 16.9704 22.9285 16.7643C23.0618 16.5584 23.0029 16.2833 22.7969 16.15Z" fill="#E5E5CB"/>
<path d="M22.7969 12.6393C22.519 12.4462 22.2745 12.209 22.0728 11.9372C21.5901 11.3887 20.9758 10.7085 19.8348 10.7085C18.6939 10.7085 18.1015 11.3667 17.5968 11.9592C17.0922 12.5516 16.7631 12.9026 16.0171 12.9026C15.2711 12.9026 14.8981 12.4857 14.4374 11.9592C13.9766 11.4326 13.3622 10.7085 12.1994 10.7085C11.0365 10.7085 10.466 11.3667 9.96136 11.9592C9.45673 12.5516 9.12761 12.9026 8.38162 12.9026C7.63564 12.9026 7.26263 12.4857 6.80188 11.9592C6.48867 11.5455 6.0926 11.2018 5.639 10.9499C5.42087 10.8408 5.15566 10.9292 5.0466 11.1474C4.93753 11.3655 5.02593 11.6307 5.24406 11.7398C5.58856 11.9474 5.8932 12.2149 6.14363 12.5296C6.64826 13.122 7.24066 13.7803 8.38162 13.7803C9.52258 13.7803 10.1149 13.1221 10.6196 12.5296C11.1242 11.9372 11.4534 11.5862 12.1994 11.5862C12.9453 11.5862 13.3184 12.0031 13.7791 12.5296C14.2398 13.0562 14.8542 13.7803 16.0171 13.7803C17.18 13.7803 17.7504 13.1221 18.2551 12.5296C18.7598 11.9372 19.0888 11.5862 19.8348 11.5862C20.5808 11.5862 20.9538 12.0031 21.4146 12.5296C21.6703 12.858 21.9735 13.1463 22.3141 13.3853C22.5201 13.5186 22.7952 13.4597 22.9285 13.2536C23.0618 13.0477 23.0029 12.7726 22.7969 12.6393Z" fill="#E5E5CB"/>
<path d="M5.24424 8.4487C5.58873 8.65634 5.89338 8.92385 6.1438 9.23857C6.64843 9.83098 7.24083 10.4892 8.3818 10.4892C9.52276 10.4892 10.1151 9.83102 10.6198 9.23857C11.1244 8.64617 11.4535 8.29512 12.1995 8.29512C12.9455 8.29512 13.3185 8.71202 13.7793 9.23857C14.24 9.76517 14.8544 10.4892 16.0173 10.4892C17.1802 10.4892 17.7506 9.83102 18.2553 9.23857C18.7599 8.64617 19.089 8.29512 19.835 8.29512C20.581 8.29512 20.954 8.71202 21.4147 9.23857C21.6705 9.5669 21.9736 9.85529 22.3143 10.0943C22.5203 10.2276 22.7954 10.1686 22.9287 9.96264C23.062 9.75664 23.0031 9.48157 22.797 9.34827C22.5191 9.15513 22.2746 8.91797 22.073 8.64617C21.5902 8.09766 20.9759 7.41748 19.835 7.41748C18.694 7.41748 18.1016 8.07569 17.597 8.66814C17.0923 9.26054 16.7632 9.61159 16.0172 9.61159C15.2712 9.61159 14.8982 9.19469 14.4375 8.66814C13.9767 8.14154 13.3624 7.41748 12.1995 7.41748C11.0366 7.41748 10.4662 8.07569 9.96149 8.66814C9.45686 9.26054 9.12774 9.61159 8.38175 9.61159C7.63577 9.61159 7.26284 9.19469 6.80205 8.66809C6.48884 8.25443 6.09278 7.91069 5.63917 7.65879C5.42104 7.54973 5.15583 7.63813 5.04677 7.85626C4.9377 8.07439 5.02615 8.33964 5.24424 8.4487Z" fill="#E5E5CB"/>
</svg>
