<svg width="28" height="28" viewBox="0 0 28 28" fill="none" xmlns="http://www.w3.org/2000/svg">
<rect y="-0.000244141" width="28" height="28" rx="4" fill="#D5CEA3"/>
<path d="M22.8737 17.8047V18.7836C22.8737 19.4314 22.4432 19.9855 21.8399 20.2018C21.8402 20.2264 21.8408 20.2509 21.8408 20.2755V22.9448C23.0952 22.6975 24.0408 21.6395 24.0408 20.3756V17.8046L22.8737 17.8047Z" fill="#E5E5CB"/>
<path d="M14.7675 10.4482V9.42461C14.7675 8.53862 14.4219 7.67989 13.794 7.00627C13.2062 6.3757 12.4331 5.97503 11.5976 5.86385C11.4127 5.69381 11.075 5.3836 10.7364 5.07397C10.4436 4.80609 10.2096 4.59271 10.0403 4.43978C9.94329 4.35208 9.86196 4.27902 9.80428 4.22814C9.67809 4.11681 9.44341 3.90938 9.09566 4.04346L8.7235 4.18726L8.77233 6.38541L8.68062 6.44832C8.08217 6.85914 7.68132 7.49144 7.57833 8.18551L5.98195 9.19717L5.97661 9.89225C5.9728 10.4224 6.18703 10.9213 6.5801 11.2975C6.97332 11.6736 7.497 11.8808 8.05501 11.8808H9.27068V12.9C9.27068 13.4063 9.35628 13.9066 9.52474 14.387L10.4259 16.9552V20.8563C9.48049 21.0674 8.77309 21.875 8.77095 22.8362L8.76897 22.9981L12.2484 22.9985C12.3436 22.1328 13.0121 21.426 13.8855 21.2287V20.5484C13.8855 18.6872 15.4793 17.1731 17.4384 17.1731H17.5243V18.2819H17.4384C16.1229 18.2819 15.0527 19.2986 15.0527 20.5484V22.2824H14.3812C13.9194 22.2824 13.5311 22.5887 13.4295 22.9987L20.7081 22.9998V20.2756C20.7081 17.8555 19.7532 15.5462 18.0193 13.7732L14.7675 10.4482Z" fill="#E5E5CB"/>
</svg>
