<svg width="26" height="26" viewBox="0 0 26 26" fill="none" xmlns="http://www.w3.org/2000/svg">
<path d="M13.002 -0.000732422C5.83432 -0.000732422 0.00195312 5.83038 0.00195312 12.9993C0.00195312 20.1682 5.83432 25.9993 13.002 25.9993C20.1696 25.9993 26.002 20.1682 26.002 12.9993C26.002 5.83038 20.1696 -0.000732422 13.002 -0.000732422ZM13.002 25.1334C6.31184 25.1334 0.86943 19.6898 0.86943 12.9993C0.86943 6.30874 6.31184 0.865178 13.002 0.865178C19.6921 0.865178 25.1345 6.30874 25.1345 12.9993C25.1345 19.6898 19.6921 25.1334 13.002 25.1334Z" fill="#5B5C5E"/>
<path d="M20.1315 8.98269C20.2214 8.81622 20.2955 8.64168 20.3528 8.46136C20.3793 8.37772 20.3799 8.288 20.3544 8.20404C20.3288 8.12009 20.2784 8.04585 20.2098 7.99113C20.1413 7.93641 20.0577 7.90379 19.9702 7.89756C19.8826 7.89133 19.7953 7.91179 19.7196 7.95624C19.3042 8.20305 18.8545 8.38693 18.3852 8.5019C17.8155 7.98768 17.0755 7.70261 16.3081 7.70166C15.8912 7.70198 15.4786 7.78649 15.0951 7.95013C14.7116 8.11377 14.3651 8.35316 14.0763 8.65396C13.7876 8.95476 13.5626 9.31077 13.4147 9.70065C13.2669 10.0905 13.1993 10.5062 13.216 10.9229C11.3927 10.6933 9.72771 9.77064 8.56647 8.34623C8.52198 8.29226 8.46512 8.24984 8.40073 8.22255C8.33633 8.19527 8.2663 8.18393 8.19659 8.1895C8.12687 8.19507 8.05953 8.21739 8.00028 8.25455C7.94104 8.29172 7.89164 8.34264 7.85628 8.40298C7.59038 8.85939 7.44585 9.37632 7.43649 9.90446C7.42712 10.4326 7.55322 10.9543 7.80277 11.4199C7.74157 11.4302 7.68277 11.4516 7.62927 11.4831C7.56372 11.5249 7.50976 11.5826 7.47235 11.6507C7.43494 11.7189 7.4153 11.7954 7.41524 11.8731C7.41524 12.7933 7.82466 13.6382 8.48459 14.2122L8.45622 14.2406C8.40639 14.2969 8.37212 14.3653 8.35676 14.439C8.34141 14.5126 8.34551 14.589 8.36866 14.6606C8.50627 15.0899 8.73604 15.4839 9.04189 15.8152C9.34774 16.1464 9.72228 16.4068 10.1393 16.578C9.28282 16.9959 8.32436 17.1588 7.37795 17.0475C7.28067 17.0376 7.18284 17.0602 7.0998 17.1119C7.01676 17.1635 6.9532 17.2412 6.91908 17.3329C6.88631 17.4252 6.88569 17.5259 6.91733 17.6186C6.94897 17.7113 7.01101 17.7906 7.09338 17.8437C8.38002 18.6695 9.87681 19.1082 11.4056 19.1077C16.4159 19.1077 19.4108 15.0376 19.4108 11.1029L19.4099 10.9699C19.8955 10.5908 20.3173 10.1364 20.6593 9.62401C20.7111 9.54655 20.7365 9.45447 20.7319 9.3614C20.7273 9.26833 20.6928 9.17923 20.6336 9.10728C20.5744 9.03533 20.4936 8.98437 20.4032 8.96193C20.3127 8.93949 20.2175 8.94677 20.1315 8.98269ZM18.7168 10.4056C18.6579 10.4479 18.6106 10.5043 18.5792 10.5696C18.5478 10.6349 18.5332 10.707 18.5368 10.7794C18.5417 10.8864 18.5441 10.995 18.5441 11.1021C18.5441 14.6111 15.8744 18.241 11.4064 18.241C10.6096 18.2413 9.81835 18.1076 9.06588 17.8453C9.96708 17.6726 10.8137 17.2861 11.5345 16.7183C11.6047 16.663 11.6561 16.5873 11.6816 16.5017C11.7072 16.416 11.7056 16.3246 11.6773 16.2399C11.6489 16.1551 11.595 16.0812 11.523 16.0283C11.451 15.9753 11.3645 15.9459 11.2751 15.944C10.9255 15.9373 10.5824 15.8486 10.2735 15.685C9.9645 15.5213 9.69832 15.2873 9.49638 15.0019C9.70149 14.9881 9.90255 14.9541 10.0979 14.9014C10.1925 14.8761 10.2757 14.8194 10.3339 14.7408C10.3922 14.6621 10.4221 14.566 10.4187 14.4681C10.4153 14.3703 10.3788 14.2765 10.3153 14.202C10.2517 14.1276 10.1648 14.0769 10.0688 14.0582C9.67395 13.9778 9.3084 13.7917 9.01123 13.5196C8.71405 13.2476 8.49642 12.8998 8.38163 12.5136C8.59728 12.5679 8.81861 12.5996 9.03994 12.6069C9.23046 12.6061 9.4072 12.4893 9.46638 12.3061C9.52556 12.1228 9.45584 11.9209 9.29451 11.8139C8.91304 11.5597 8.61932 11.194 8.45347 10.7667C8.28762 10.3393 8.25771 9.87117 8.36785 9.42618C9.7761 10.8712 11.6777 11.7318 13.6927 11.8358C13.8354 11.8366 13.9602 11.7855 14.047 11.681C14.1337 11.5764 14.167 11.4377 14.1362 11.3048C14.0253 10.8272 14.0749 10.3264 14.2773 9.8799C14.4797 9.43338 14.8236 9.06602 15.2558 8.83467C15.688 8.60333 16.1844 8.52088 16.6682 8.60011C17.152 8.67934 17.5961 8.91582 17.932 9.27295C17.9823 9.32665 18.0455 9.36667 18.1156 9.38922C18.1856 9.41177 18.2603 9.41612 18.3325 9.40186C18.4663 9.3751 18.5984 9.34429 18.7289 9.30862C18.6701 9.35267 18.6089 9.39354 18.5457 9.43105C18.4616 9.48255 18.3976 9.56116 18.3642 9.65392C18.3308 9.74668 18.33 9.84805 18.3619 9.94134C18.3938 10.0346 18.4565 10.1143 18.5398 10.1671C18.623 10.22 18.7217 10.2429 18.8197 10.2321L18.9673 10.2134C18.886 10.2804 18.8025 10.3445 18.7168 10.4056Z" fill="#5B5C5E"/>
</svg>
